<?xml version="1.0" standalone="no"?>
<!DOCTYPE svg PUBLIC "-//W3C//DTD SVG 20010904//EN"
 "http://www.w3.org/TR/2001/REC-SVG-20010904/DTD/svg10.dtd">
<svg version="1.0" xmlns="http://www.w3.org/2000/svg"
 width="640.000000pt" height="640.000000pt" viewBox="0 0 640.000000 640.000000"
 preserveAspectRatio="xMidYMid meet">
<metadata>
Created by potrace 1.14, written by Peter Selinger 2001-2017
</metadata>
<g transform="translate(0.000000,640.000000) scale(0.100000,-0.100000)"
fill="#000000" stroke="none">
<path d="M4777 6306 c-4 -9 -18 -16 -32 -16 -36 0 -65 -17 -65 -39 0 -14 -6
-17 -25 -13 -18 3 -25 0 -25 -11 0 -21 -36 -40 -61 -34 -15 4 -19 1 -15 -11 5
-14 -1 -17 -32 -16 -49 0 -68 -6 -51 -17 21 -13 5 -20 -31 -13 -29 6 -31 9
-17 19 9 7 14 15 10 18 -3 4 -14 -3 -24 -14 -10 -12 -22 -18 -28 -15 -5 4 -13
1 -17 -5 -4 -6 1 -16 10 -21 11 -6 15 -16 11 -29 -9 -27 6 -49 16 -23 5 13 8
14 8 4 2 -44 -60 -53 -74 -10 -6 19 -7 19 -33 -5 -15 -14 -34 -25 -43 -25 -9
0 -22 -7 -29 -15 -14 -17 -30 -20 -30 -5 0 16 -35 47 -48 42 -7 -2 -12 -15
-12 -29 0 -23 -3 -25 -30 -19 -22 4 -30 2 -30 -9 0 -8 -9 -19 -20 -25 -21 -11
-27 -7 -79 55 l-24 29 -8 -23 c-5 -12 -13 -19 -19 -16 -5 3 -10 0 -10 -8 0
-10 -8 -13 -25 -9 -14 2 -25 9 -25 16 0 24 -18 38 -39 31 -16 -5 -20 -12 -15
-31 8 -31 -3 -31 -29 2 -19 25 -21 26 -28 8 -4 -10 -8 -13 -8 -6 -1 14 -47 17
-56 3 -3 -6 -26 -8 -50 -6 -54 4 -98 -15 -105 -47 -6 -22 -24 -30 -45 -19 -24
13 -45 7 -45 -13 0 -17 -2 -18 -10 -6 -7 12 -12 12 -22 2 -6 -6 -22 -12 -34
-12 -12 0 -27 -7 -34 -15 -7 -9 -19 -14 -27 -11 -18 7 -63 -14 -63 -30 0 -10
-9 -12 -29 -8 -20 4 -46 -2 -83 -19 -70 -33 -108 -43 -108 -27 0 7 -7 5 -17
-5 -11 -12 -27 -16 -52 -12 -47 6 -86 -5 -85 -25 1 -11 -7 -14 -32 -12 -19 1
-34 -2 -34 -7 0 -5 -12 -9 -27 -10 -16 -1 -38 -4 -51 -7 -13 -4 52 -7 145 -8
92 0 222 -7 288 -16 88 -11 174 -14 318 -10 203 5 333 -5 431 -34 60 -17 59
-17 51 -1 -4 6 -1 5 7 -3 7 -9 51 -35 98 -59 47 -24 97 -52 111 -62 27 -19 27
-19 43 6 22 33 20 45 -6 45 -37 0 -53 15 -42 38 14 32 102 99 186 142 66 35
85 40 142 40 49 0 70 -4 84 -17 28 -28 73 -46 86 -33 5 5 19 10 31 10 11 0 34
9 50 20 17 11 24 20 16 20 -8 0 -11 3 -8 7 4 3 15 -1 24 -9 10 -9 32 -18 48
-19 17 -2 45 -11 62 -21 18 -10 40 -15 48 -12 8 4 15 1 15 -6 0 -6 -4 -8 -10
-5 -5 3 -10 1 -10 -4 0 -6 5 -11 11 -11 6 0 22 -14 36 -30 26 -31 57 -33 76
-6 4 7 10 8 15 1 13 -17 52 -36 63 -29 11 7 39 -13 39 -29 0 -6 -7 -2 -15 9
-8 10 -14 15 -14 9 0 -17 26 -45 34 -37 5 4 5 1 1 -6 -4 -7 2 -26 14 -43 27
-37 50 -121 43 -151 -3 -13 -12 -30 -20 -40 -13 -14 -13 -19 1 -40 25 -38 45
-103 51 -172 6 -62 5 -65 -24 -95 -17 -18 -31 -38 -31 -45 0 -7 -9 -25 -21
-39 -14 -19 -17 -31 -11 -44 5 -10 31 -94 57 -188 26 -93 54 -194 62 -223 10
-37 21 -56 36 -61 27 -11 38 -5 30 15 -5 14 -3 15 15 5 15 -8 27 -7 49 4 15 8
36 15 46 15 9 0 17 8 17 18 1 15 2 15 15 -2 12 -16 19 -18 37 -9 13 6 30 12
38 12 47 2 81 14 76 27 -4 11 -1 12 14 4 22 -12 53 -13 46 -2 -2 4 9 14 25 21
22 9 37 10 59 2 24 -8 30 -7 30 4 0 17 20 31 29 19 10 -15 81 -14 81 0 0 8 7
19 15 26 12 10 15 10 15 -4 0 -21 28 -20 66 3 l32 19 -5 -21 c-4 -19 -3 -20 7
-5 6 9 16 15 23 12 7 -2 13 6 14 23 0 16 12 37 28 50 14 13 21 23 14 23 -6 0
-9 10 -7 23 2 13 -2 29 -9 36 -17 16 -12 24 11 15 9 -3 16 -16 16 -28 0 -15 3
-17 9 -7 5 8 18 11 32 7 13 -3 18 -3 12 0 -24 11 -13 24 13 18 18 -5 25 -3 20
4 -4 6 2 8 14 5 15 -4 20 0 20 15 0 12 5 24 10 27 6 3 10 1 10 -4 0 -21 19
-11 22 12 3 19 7 16 26 -20 12 -24 24 -43 26 -43 2 0 4 79 5 175 1 96 -2 175
-6 175 -4 0 -8 16 -9 35 0 19 3 35 8 35 4 0 8 8 8 18 -1 16 -1 16 -14 0 -14
-19 -41 -24 -50 -9 -7 11 -48 2 -58 -13 -5 -7 -12 -4 -21 8 -11 15 -21 17 -51
12 -33 -6 -40 -4 -59 21 -12 15 -22 32 -22 38 0 5 -9 9 -20 7 -12 -1 -30 7
-42 18 -26 24 -63 27 -63 5 0 -25 -40 -18 -50 9 -5 13 -15 26 -22 29 -8 3 -6
6 6 6 15 1 16 4 7 15 -9 11 -9 20 -2 35 15 27 14 31 -6 24 -12 -5 -14 -3 -8 8
4 8 5 11 0 7 -4 -4 -16 -3 -26 3 -13 6 -19 6 -19 -1 0 -5 -7 -10 -16 -10 -14
0 -14 3 -4 15 10 13 10 19 -4 33 -9 10 -13 22 -9 25 3 4 -9 7 -28 7 -28 1 -31
2 -16 11 20 12 23 39 4 39 -7 0 -19 -6 -25 -12 -10 -10 -15 -10 -22 2 -6 9
-30 15 -75 17 -37 1 -74 8 -83 15 -12 10 -14 10 -8 1 4 -8 2 -13 -8 -13 -8 0
-16 6 -18 13 -3 6 -16 12 -31 12 -14 1 -23 -3 -21 -7 3 -4 -4 -8 -15 -8 -11 0
-23 5 -26 10 -3 6 -13 10 -21 10 -23 0 -16 -20 9 -21 18 -1 19 -2 3 -6 -10 -3
-23 0 -29 6 -6 6 -20 11 -32 11 -11 0 -26 9 -33 21 -13 20 -14 20 -32 4 -17
-16 -20 -15 -49 6 -17 13 -31 28 -31 33 0 6 -8 2 -18 -10 l-17 -20 -25 24
c-14 14 -19 22 -12 18 6 -4 12 -2 12 4 0 8 -9 10 -24 6 -14 -3 -27 -2 -31 4
-3 5 -11 7 -18 4 -7 -2 -17 6 -22 18 -14 30 -27 32 -55 8 -28 -25 -33 -25 -22
-2 5 9 7 23 4 31 -3 8 0 11 6 7 6 -3 14 -1 18 5 5 9 0 10 -17 6 -13 -4 -28 -7
-33 -7 -6 0 -1 -7 10 -16 18 -15 18 -15 -5 -2 -39 23 -37 38 2 38 31 0 34 3
30 21 -4 12 0 25 8 30 10 6 11 11 3 19 -8 8 -15 3 -24 -19 -14 -35 -27 -39
-37 -13 -9 23 -24 36 -47 40 -11 2 -17 -1 -14 -10 3 -7 11 -13 19 -13 19 0 18
-37 -1 -42 -13 -4 -13 -3 0 6 20 14 10 21 -36 27 -30 3 -34 2 -19 -5 14 -7 15
-10 5 -10 -8 0 -21 3 -28 8 -10 6 -10 10 2 20 9 7 18 28 22 47 7 38 7 38 35
24 11 -6 19 -7 19 -1 0 5 -7 11 -15 15 -16 6 -21 36 -7 36 5 0 14 12 21 26 11
25 11 26 -14 20 -29 -7 -34 8 -7 23 26 15 3 31 -28 19 -20 -7 -22 -11 -10 -18
12 -8 11 -10 -5 -10 -26 0 -45 18 -45 42 0 11 7 18 19 18 10 0 26 10 34 23 14
18 18 20 26 7 5 -8 13 -11 17 -7 4 3 2 13 -4 20 -9 10 -8 17 0 25 9 9 9 12 0
12 -7 0 -12 -4 -12 -10 0 -5 -7 -10 -15 -10 -9 0 -18 -6 -21 -14 -3 -8 -12
-12 -20 -9 -20 8 -17 18 9 31 12 6 16 11 9 11 -27 2 0 21 29 21 20 0 29 4 26
13 -2 6 0 20 5 30 6 12 5 17 -7 17 -8 0 -15 -7 -15 -15 0 -8 -4 -15 -10 -15
-5 0 -10 7 -10 15 0 8 -6 15 -12 16 -7 0 2 5 21 10 l33 10 -22 24 c-12 13 -30
24 -39 24 -9 1 -34 4 -57 7 -32 5 -42 2 -47 -10z m-295 -218 c8 -22 -4 -56
-19 -63 -26 -10 -28 4 -3 30 13 14 18 25 12 25 -7 0 -12 5 -12 10 0 14 18 12
22 -2z m378 -98 c0 -5 -4 -10 -10 -10 -5 0 -10 5 -10 10 0 6 5 10 10 10 6 0
10 -4 10 -10z m-715 -20 c3 -5 1 -10 -4 -10 -6 0 -11 5 -11 10 0 6 2 10 4 10
3 0 8 -4 11 -10z m-565 -34 c0 -11 -19 -15 -25 -6 -3 5 1 10 9 10 9 0 16 -2
16 -4z m1270 -26 c6 -11 15 -18 21 -15 22 14 7 -29 -21 -58 -27 -28 -30 -29
-27 -10 2 11 9 28 16 37 19 23 7 46 -21 38 -21 -5 -22 -4 -9 11 18 22 28 21
41 -3z m-95 -80 c3 -5 1 -10 -4 -10 -6 0 -11 5 -11 10 0 6 2 10 4 10 3 0 8 -4
11 -10z m-28 -35 c0 -8 -4 -12 -9 -9 -5 3 -6 10 -3 15 9 13 12 11 12 -6z m183
-5 c0 -5 -2 -10 -4 -10 -3 0 -8 5 -11 10 -3 6 -1 10 4 10 6 0 11 -4 11 -10z
m610 -220 c0 -5 -4 -10 -9 -10 -6 0 -13 5 -16 10 -3 6 1 10 9 10 9 0 16 -4 16
-10z m720 -430 c0 -15 -7 -20 -27 -20 -26 0 -26 0 -7 19 25 26 34 26 34 1z
m-95 -170 c3 -5 1 -10 -4 -10 -6 0 -11 5 -11 10 0 6 2 10 4 10 3 0 8 -4 11
-10z m-85 -30 c0 -5 -5 -10 -11 -10 -5 0 -7 5 -4 10 3 6 8 10 11 10 2 0 4 -4
4 -10z m150 -70 c0 -5 -4 -10 -9 -10 -6 0 -13 5 -16 10 -3 6 1 10 9 10 9 0 16
-4 16 -10z m30 -40 c0 -11 -4 -20 -10 -20 -5 0 -10 9 -10 20 0 11 5 20 10 20
6 0 10 -9 10 -20z m-124 -115 c-1 -30 -21 -33 -29 -6 -3 13 1 21 12 24 9 3 17
5 17 6 1 0 1 -10 0 -24z"/>
<path d="M4960 6268 c0 -4 9 -8 20 -8 11 0 20 -4 20 -10 0 -5 9 -6 19 -2 11 4
19 11 18 17 -2 11 -77 15 -77 3z"/>
<path d="M5037 6093 c-4 -3 -7 -13 -7 -22 1 -13 3 -13 11 2 11 19 8 33 -4 20z"/>
<path d="M4340 6082 c0 -5 7 -9 15 -9 8 0 12 4 9 9 -3 4 -9 8 -15 8 -5 0 -9
-4 -9 -8z"/>
<path d="M4240 6061 c0 -11 26 -22 34 -14 3 3 3 10 0 14 -7 12 -34 11 -34 0z"/>
<path d="M4200 6050 c0 -5 5 -10 10 -10 6 0 10 5 10 10 0 6 -4 10 -10 10 -5 0
-10 -4 -10 -10z"/>
<path d="M5040 5988 c0 -9 7 -19 16 -22 15 -6 15 -4 3 11 -7 10 -15 20 -16 22
-2 2 -3 -3 -3 -11z"/>
<path d="M5036 5925 c-9 -26 -7 -32 5 -12 6 10 9 21 6 23 -2 3 -7 -2 -11 -11z"/>
<path d="M4920 5890 c0 -5 7 -10 16 -10 8 0 12 5 9 10 -3 6 -10 10 -16 10 -5
0 -9 -4 -9 -10z"/>
<path d="M5005 5850 c-3 -5 1 -10 9 -10 9 0 16 5 16 10 0 6 -4 10 -9 10 -6 0
-13 -4 -16 -10z"/>
<path d="M5120 5720 c0 -5 7 -10 16 -10 8 0 12 5 9 10 -3 6 -10 10 -16 10 -5
0 -9 -4 -9 -10z"/>
<path d="M2646 5711 c-4 -5 3 -7 14 -4 23 6 26 13 6 13 -8 0 -17 -4 -20 -9z"/>
<path d="M2605 5700 c-3 -5 -1 -10 4 -10 6 0 11 5 11 10 0 6 -2 10 -4 10 -3 0
-8 -4 -11 -10z"/>
<path d="M2382 5620 c-18 -10 -29 -21 -24 -24 5 -3 24 6 42 19 39 29 30 31
-18 5z"/>
<path d="M5720 5610 c0 -5 5 -10 11 -10 5 0 7 5 4 10 -3 6 -8 10 -11 10 -2 0
-4 -4 -4 -10z"/>
<path d="M2125 5474 c-6 -2 -9 -19 -7 -38 5 -46 -36 -79 -119 -95 -35 -7 -74
-14 -85 -17 -28 -5 -32 -18 -25 -79 7 -50 -17 -167 -38 -188 -5 -5 -24 -10
-43 -11 -18 -1 -34 -7 -34 -14 -1 -7 -2 -23 -3 -37 0 -13 -17 -40 -36 -59 -26
-26 -34 -42 -32 -65 1 -17 5 -31 9 -31 4 0 5 -7 1 -16 -5 -13 -8 -13 -15 -2
-7 10 -8 9 -4 -4 3 -10 1 -18 -4 -18 -6 0 -10 -7 -10 -15 0 -8 -9 -24 -20 -35
-12 -12 -18 -25 -15 -30 4 -6 -6 -15 -20 -20 -32 -12 -38 -12 -31 -2 2 4 -3 8
-12 9 -9 1 -27 4 -38 8 -17 5 -26 0 -43 -28 -21 -34 -60 -67 -79 -67 -6 0 -12
9 -15 20 -4 14 -13 20 -34 20 -29 0 -56 -12 -53 -24 4 -14 -9 -48 -17 -43 -4
3 -9 -5 -10 -16 -3 -39 -16 -81 -30 -95 -7 -7 -15 -25 -19 -40 -3 -15 -9 -34
-14 -42 -5 -8 -18 -34 -29 -57 -11 -24 -25 -43 -30 -43 -6 0 -11 -6 -11 -14 0
-7 -7 -27 -15 -42 -8 -16 -15 -39 -15 -51 0 -13 -4 -23 -10 -23 -5 0 -10 -8
-10 -18 0 -10 -5 -23 -11 -29 -7 -7 -14 -30 -16 -51 -2 -22 -17 -66 -33 -98
-17 -32 -30 -67 -30 -78 0 -10 -7 -28 -17 -38 -13 -14 -13 -18 -2 -18 10 -1 9
-4 -3 -11 -11 -6 -18 -22 -18 -41 0 -17 -3 -28 -7 -25 -7 8 -32 -51 -40 -95
-3 -16 -9 -28 -13 -28 -5 0 -10 -10 -12 -22 -2 -13 -9 -22 -16 -20 -9 2 -11
-4 -8 -16 4 -11 -2 -27 -14 -40 -11 -12 -23 -35 -26 -52 -4 -16 -10 -30 -14
-30 -4 0 -10 -7 -13 -14 -4 -11 -1 -13 11 -9 15 6 15 5 3 -10 -7 -9 -17 -15
-21 -12 -4 3 -11 -7 -14 -21 -4 -14 -22 -47 -41 -74 -19 -28 -35 -58 -34 -67
0 -16 2 -15 9 2 6 14 9 16 9 4 1 -8 -6 -24 -14 -35 -13 -16 -14 -16 -9 -1 3 9
2 17 -4 17 -14 0 -25 -34 -12 -38 7 -3 1 -20 -13 -45 -14 -23 -42 -73 -62
-112 -21 -38 -46 -78 -56 -88 -11 -10 -19 -26 -19 -37 0 -14 -5 -18 -17 -13
-13 5 -15 2 -11 -15 5 -16 2 -19 -11 -15 -14 6 -14 4 2 -14 19 -21 14 -33 -15
-33 -10 0 -18 -4 -18 -10 0 -5 7 -10 16 -10 8 0 12 -4 9 -10 -3 -5 -1 -10 4
-10 6 0 11 6 11 13 1 25 21 -25 22 -53 1 -17 5 -30 10 -30 5 0 7 -10 4 -22
l-6 -23 11 23 c7 12 16 22 22 22 5 0 7 7 4 15 -4 8 -2 17 3 20 6 4 7 -29 3
-87 -5 -82 -11 -104 -49 -186 -24 -51 -44 -97 -44 -102 0 -4 -11 -11 -24 -14
-13 -3 -26 -16 -30 -28 -6 -22 -7 -22 -17 -4 -12 20 -8 63 11 111 6 17 12 32
12 35 0 3 4 15 8 26 5 13 4 26 -3 33 -9 9 -9 14 0 19 6 4 9 21 7 39 -2 21 1
33 11 37 8 3 15 11 15 18 0 10 -2 10 -9 -1 -11 -17 -34 -4 -27 16 9 24 -13 4
-28 -25 -7 -15 -19 -51 -26 -79 -12 -52 -23 -65 -34 -41 -3 7 -3 3 -1 -8 8
-31 -12 -77 -30 -70 -8 3 -15 1 -15 -3 0 -5 5 -11 10 -13 13 -4 -4 -57 -37
-112 -17 -28 -23 -33 -18 -16 3 14 7 41 9 60 2 19 1 25 -1 12 -2 -12 -11 -22
-19 -22 -12 0 -14 -14 -12 -71 1 -42 -2 -73 -9 -77 -6 -4 -12 -16 -15 -27 -2
-12 -10 -19 -21 -17 -9 2 -17 -2 -17 -8 0 -6 5 -8 10 -5 17 11 11 -12 -20 -77
-16 -34 -30 -67 -30 -74 0 -14 -28 -39 -36 -32 -3 3 4 22 16 43 20 36 20 36 0
30 -14 -4 -20 -2 -20 8 0 20 27 40 42 31 10 -5 11 -4 1 7 -19 19 -16 42 7 67
11 12 24 38 28 59 6 27 13 38 25 37 22 -2 22 15 1 23 -10 4 -22 0 -29 -10 -7
-9 -15 -14 -19 -10 -4 4 -4 0 0 -10 3 -10 1 -17 -5 -17 -6 0 -11 -7 -11 -15 0
-8 -5 -15 -11 -15 -6 0 -9 -7 -5 -15 3 -8 1 -15 -5 -15 -5 0 -9 -8 -7 -17 2
-10 -3 -18 -9 -19 -26 -3 -28 -5 -13 -14 12 -8 12 -12 -6 -32 -11 -13 -37 -56
-57 -95 -28 -55 -37 -84 -36 -120 l0 -48 17 38 c9 20 23 37 30 37 9 0 12 6 8
17 -4 10 -4 14 0 10 4 -4 13 -2 21 4 15 13 18 33 3 24 -5 -3 -10 1 -10 9 0 18
18 17 38 -2 11 -10 10 -22 -8 -70 -12 -31 -24 -65 -27 -74 -3 -10 -9 -18 -14
-18 -12 0 -41 -59 -34 -69 2 -5 -2 -22 -10 -37 -16 -32 -21 -154 -6 -139 10
11 31 85 34 121 2 21 24 54 36 54 9 0 7 -30 -13 -190 -8 -69 -18 -152 -21
-185 -4 -33 -9 -73 -11 -90 -3 -16 -6 -47 -8 -69 -2 -21 -8 -41 -13 -45 -14
-9 -7 -99 8 -118 10 -12 10 -15 2 -9 -7 4 -13 2 -13 -3 0 -6 7 -11 15 -11 12
0 14 -8 11 -33 -3 -17 -3 -26 0 -19 8 17 27 15 21 -3 -4 -8 -2 -17 3 -20 5 -3
10 3 12 12 3 13 11 6 30 -27 17 -28 25 -54 22 -67 -3 -11 -1 -24 5 -27 7 -4 8
-1 5 8 -3 9 -1 16 4 16 13 0 26 -36 17 -50 -3 -5 -16 0 -30 12 -13 12 -22 25
-19 30 3 4 0 8 -5 8 -6 0 -12 10 -12 23 -1 16 -3 17 -6 5 -5 -20 -32 -13 -51
14 -7 10 -17 18 -23 18 -6 0 -9 -118 -9 -312 l1 -313 24 -23 c14 -13 28 -22
32 -19 4 2 16 1 26 -2 16 -6 17 -9 5 -19 -11 -9 -22 -7 -51 8 -36 20 -37 20
-37 1 0 -11 6 -22 13 -24 10 -4 10 -6 0 -6 -7 -1 -13 -8 -13 -16 0 -13 35 -21
56 -12 4 1 11 -8 15 -21 8 -20 15 -23 51 -20 35 2 42 6 40 21 -3 15 3 17 38
15 36 -2 39 -4 25 -15 -16 -11 -15 -13 6 -18 13 -3 34 -7 46 -8 15 -1 22 -7
20 -17 -1 -11 6 -14 27 -13 23 2 27 -1 23 -18 -4 -14 1 -21 17 -25 12 -3 26
-4 32 -3 20 3 44 -1 44 -9 0 -5 -12 -13 -28 -19 -23 -9 -16 -11 51 -12 74 -1
78 0 72 19 -6 18 -2 20 41 20 38 0 44 -3 35 -13 -17 -21 -3 -27 66 -27 53 0
63 3 63 18 0 14 -2 15 -10 2 -8 -13 -10 -12 -10 3 0 19 17 22 40 7 13 -9 13
-11 0 -20 -10 -7 10 -10 68 -10 54 0 81 4 77 10 -4 6 -11 8 -16 5 -5 -4 -9 -1
-9 4 0 6 13 11 28 11 15 0 33 5 40 12 7 7 12 8 12 3 0 -5 7 0 16 11 11 14 17
16 21 6 3 -9 10 -7 23 8 10 12 21 21 24 20 4 0 14 4 24 9 16 10 16 13 -4 48
-15 26 -31 40 -50 43 -20 4 -25 8 -16 14 17 10 6 62 -19 95 -23 29 -24 42 -4
34 9 -3 15 -2 14 3 -3 19 2 29 9 18 4 -6 17 -14 29 -18 17 -6 22 -2 25 16 2
18 9 22 27 20 14 -1 28 3 32 10 7 11 13 10 30 0 11 -7 24 -10 27 -7 4 4 -2 11
-12 17 -15 8 -16 12 -5 19 19 12 32 11 24 -1 -3 -6 2 -13 11 -17 10 -4 19 -2
22 5 2 8 9 9 23 2 15 -8 17 -7 13 4 -3 8 -1 17 5 21 6 3 11 1 11 -4 0 -20 49
-12 61 10 8 16 13 18 19 9 5 -8 13 -9 21 -4 8 5 52 18 99 30 47 12 128 39 180
59 86 34 344 125 353 125 2 0 37 -33 79 -72 89 -86 208 -154 343 -193 98 -29
245 -55 313 -55 23 0 42 -4 42 -10 0 -10 -25 -14 -67 -10 -16 1 -23 -4 -24
-17 -1 -34 -10 -76 -24 -117 -19 -54 -19 -69 5 -108 21 -34 28 -64 9 -38 -9
12 -10 12 -5 -3 3 -10 6 -21 6 -23 0 -2 263 -4 584 -4 l583 0 37 35 c34 32 43
35 97 35 68 0 122 -19 141 -49 l13 -21 1137 0 1138 0 0 1049 c0 959 -1 1050
-16 1062 -15 12 -16 10 -11 -26 4 -22 9 -69 11 -105 3 -36 2 -51 -1 -35 -2 17
-11 55 -19 85 -9 30 -17 68 -19 84 -3 16 -8 32 -12 35 -5 3 -9 20 -9 36 -6
115 -16 181 -31 197 -9 10 -12 18 -7 18 5 0 2 5 -6 10 -8 5 -10 10 -5 10 6 0
10 37 10 94 0 52 3 92 8 89 4 -2 7 0 7 5 0 12 -29 24 -41 16 -5 -3 -9 -13 -9
-22 0 -15 -2 -15 -10 -2 -13 20 -13 43 1 35 6 -4 13 2 16 14 3 11 9 18 14 15
9 -5 -9 42 -23 62 -5 7 -31 55 -59 109 -72 142 -126 228 -149 243 -12 7 -20 8
-20 2 0 -5 4 -10 9 -10 6 0 9 -8 9 -17 -1 -10 2 -35 6 -56 5 -29 11 -37 22
-33 10 4 12 2 8 -6 -5 -7 0 -9 14 -6 14 4 19 2 15 -8 -2 -7 -11 -10 -19 -7
-19 7 -18 -18 2 -43 8 -10 12 -13 8 -5 -5 10 -3 12 5 7 18 -12 -6 -35 -29 -29
-12 3 -20 0 -20 -7 0 -7 7 -10 15 -6 8 3 15 2 15 -3 0 -4 11 -6 25 -3 27 5 32
-7 15 -38 -7 -14 -5 -19 9 -23 11 -2 21 -15 23 -27 2 -14 11 -24 22 -26 30 -4
44 -23 26 -37 -9 -7 -14 -20 -12 -29 2 -10 -2 -18 -10 -18 -9 -1 -8 -4 4 -13
9 -7 19 -30 23 -50 l7 -37 -35 4 c-19 3 -47 16 -62 30 -15 14 -32 24 -39 23
-6 -1 -10 7 -8 18 2 15 0 17 -6 6 -6 -9 -17 -11 -33 -6 -23 8 -23 8 -4 16 19
7 19 8 -2 8 -25 1 -28 8 -13 31 9 13 12 13 21 -3 14 -24 30 -11 25 20 -3 14
-7 27 -9 29 -8 8 -47 -28 -47 -44 0 -15 -2 -15 -10 -2 -8 12 -10 11 -10 -7 0
-42 -17 -28 -76 67 -55 86 -131 224 -217 390 -38 74 -73 140 -77 145 -14 18
-207 410 -258 525 -11 25 -34 76 -51 113 -17 37 -30 71 -29 75 1 4 -4 20 -10
35 -7 16 -12 34 -12 42 0 8 -5 17 -11 20 -5 4 -9 14 -7 23 2 10 -2 22 -8 27
-7 6 -14 21 -16 35 -2 14 -7 28 -11 31 -8 6 -13 37 -16 87 -1 16 -5 21 -13 16
-8 -5 -7 0 2 11 12 15 12 17 1 10 -11 -6 -13 -4 -8 8 3 9 2 19 -3 22 -6 4 -10
15 -10 26 0 13 -4 18 -12 13 -8 -5 -9 0 -5 16 3 13 2 29 -2 34 -15 20 -21 76
-8 76 7 1 5 6 -6 14 -15 11 -15 15 -3 19 8 3 12 14 10 24 -3 10 2 27 11 38 15
19 15 19 9 -10 -4 -24 -3 -27 6 -15 10 12 11 11 7 -7 -3 -13 -1 -23 3 -23 5 0
11 -18 15 -40 4 -22 11 -40 16 -40 4 0 6 -6 3 -13 -3 -8 2 -20 11 -27 8 -7 15
-19 15 -26 0 -8 5 -14 11 -14 6 0 8 -8 4 -19 -3 -12 0 -23 8 -28 7 -4 17 -17
22 -28 7 -19 8 -19 15 5 7 21 8 22 10 5 1 -11 4 -14 7 -7 10 24 22 11 17 -18
-4 -19 -2 -30 5 -30 6 0 11 10 11 21 0 29 -21 99 -30 99 -10 0 -19 32 -30 100
-4 30 -14 73 -20 95 -7 22 -14 60 -16 84 -3 43 -23 82 -25 51 -1 -8 -1 -19 0
-23 1 -5 -2 -6 -6 -4 -11 7 -38 -14 -46 -35 -7 -20 -57 -25 -57 -6 0 6 3 8 7
5 10 -11 31 27 42 74 7 32 7 46 -2 51 -9 6 -9 8 1 8 6 0 12 4 12 10 0 5 -6 7
-14 4 -8 -3 -19 3 -25 15 -13 24 -41 17 -41 -10 0 -10 -4 -19 -9 -19 -15 0
-21 29 -11 56 8 20 7 25 -2 21 -7 -2 -24 4 -37 14 -30 24 -32 24 -59 -2 -23
-21 -42 -18 -42 7 0 8 -3 14 -7 15 -5 0 -34 2 -65 4 -65 5 -64 11 -15 -89 16
-33 36 -65 45 -72 8 -6 13 -18 9 -26 -5 -15 15 -102 33 -143 5 -11 14 -54 21
-95 6 -41 15 -100 19 -130 9 -61 11 -132 3 -112 -10 25 -33 12 -33 -18 0 -16
5 -30 12 -30 6 0 9 -3 6 -6 -4 -3 -15 -1 -26 5 -15 8 -21 26 -27 78 -9 90 -12
105 -22 112 -4 3 -9 17 -11 31 -1 13 -8 29 -14 35 -8 7 -9 1 -4 -23 3 -20 2
-31 -4 -27 -9 6 9 -56 19 -65 3 -3 6 -25 7 -50 l1 -45 -16 35 -15 35 -4 -29
c-2 -17 2 -32 10 -37 11 -7 11 -9 0 -9 -8 0 -12 -9 -10 -22 2 -13 8 -22 14
-21 6 1 11 -14 12 -35 0 -20 3 -52 7 -69 11 -51 -11 -40 -29 14 -9 26 -16 61
-16 79 0 27 -4 32 -31 38 -18 3 -38 14 -45 24 -11 14 -12 9 -7 -38 l5 -55 -77
-82 c-43 -46 -81 -83 -86 -83 -5 0 -9 9 -9 19 0 27 -17 35 -25 12 -3 -11 -12
-24 -20 -31 -11 -10 -20 2 -49 63 -20 41 -36 80 -36 87 0 7 -7 10 -15 6 -8 -3
-15 0 -15 7 0 8 -16 14 -42 15 -24 0 -37 -1 -30 -4 9 -4 10 -10 3 -18 -8 -9
-5 -24 8 -52 21 -44 34 -94 25 -94 -8 0 -25 18 -67 74 -33 44 -109 132 -187
216 -14 15 -76 79 -137 143 -62 64 -113 121 -113 126 0 6 -7 8 -16 4 -10 -4
-20 1 -26 11 -5 9 -14 14 -19 10 -6 -3 -18 1 -27 10 -20 18 -48 6 -39 -17 3
-9 -1 -18 -9 -21 -9 -3 -12 -10 -9 -16 4 -6 -5 -10 -19 -10 -14 0 -26 -4 -26
-10 0 -5 5 -10 11 -10 5 0 8 -4 5 -9 -3 -4 -17 -6 -31 -3 -22 4 -26 1 -23 -14
2 -13 -4 -20 -19 -22 -14 -2 -23 -11 -25 -25 -2 -18 -9 -22 -38 -22 -19 1 -38
-4 -42 -10 -5 -6 -8 -6 -8 3 0 7 -13 12 -30 12 -16 0 -30 -4 -30 -10 0 -5 -4
-10 -10 -10 -5 0 -10 7 -10 15 0 9 -7 15 -15 13 -9 -2 -26 14 -40 37 l-24 40
-1 -67 c0 -39 -4 -68 -10 -68 -5 0 -10 12 -10 26 0 14 -4 23 -10 19 -12 -7
-10 -164 2 -171 11 -7 10 -58 -2 -70 -14 -14 -1 -106 14 -97 6 4 5 0 -2 -9
-14 -18 -9 -107 9 -170 12 -42 12 -168 0 -168 -5 0 -11 12 -13 28 -4 22 -6 24
-12 10 -11 -25 0 -48 23 -48 12 0 21 8 24 23 3 14 5 10 6 -14 0 -19 6 -40 13
-47 7 -7 9 -12 6 -12 -4 0 11 -35 33 -77 38 -76 49 -123 29 -123 -6 0 -16 11
-22 25 -6 14 -15 25 -20 25 -4 0 -8 6 -8 13 0 8 -16 44 -35 80 -19 36 -35 72
-35 80 0 8 -7 17 -14 20 -8 3 -18 22 -22 42 -3 19 -10 38 -15 40 -4 3 -5 13
-2 22 5 12 3 14 -7 8 -10 -6 -12 -4 -7 9 5 12 0 19 -18 26 -17 7 -25 17 -25
34 0 13 -6 26 -12 29 -10 3 -10 7 0 19 15 19 23 114 13 161 -5 23 -12 31 -24
29 -10 -2 -17 4 -17 13 0 14 -5 13 -32 -6 l-31 -22 5 26 c4 21 2 25 -7 17 -13
-11 -45 -4 -45 10 0 4 -16 8 -35 7 -28 -1 -34 -4 -30 -18 3 -9 3 -24 -1 -33
-6 -15 -7 -15 -20 1 -9 12 -13 14 -14 5 0 -7 -4 -10 -10 -7 -5 3 -8 19 -6 36
2 16 0 32 -4 34 -4 3 -11 31 -16 62 -4 32 -8 60 -8 63 -1 3 -6 12 -11 20 -5 8
-8 22 -7 32 4 23 -14 31 -38 16 -24 -15 -26 -28 -5 -28 15 0 21 -21 8 -33 -12
-13 -33 15 -33 44 0 16 -4 29 -9 29 -5 0 -16 16 -25 35 -9 19 -21 35 -25 35
-5 0 -8 8 -7 18 1 12 -5 16 -19 14 -11 -2 -22 -7 -25 -10 -8 -11 -43 -32 -63
-38 -9 -4 -16 -14 -15 -23 2 -9 -3 -15 -9 -14 -7 2 -13 -2 -13 -7 0 -6 -9 -10
-19 -10 -11 0 -23 -4 -26 -10 -3 -5 -16 -10 -27 -10 -20 0 -108 -82 -108 -101
0 -6 -8 -22 -19 -37 -41 -60 -174 -297 -237 -422 -11 -23 -24 -40 -29 -38 -4
2 -12 -7 -16 -20 -6 -16 -5 -21 2 -16 8 4 8 0 0 -15 -15 -28 -42 -41 -84 -41
-34 0 -34 -1 -40 -52 -4 -28 -13 -59 -22 -67 -11 -11 -15 -12 -15 -2 0 8 -7
10 -19 6 -15 -4 -26 4 -49 37 -43 65 -45 69 -28 62 14 -5 34 12 77 65 22 26
22 51 2 51 -17 1 -17 2 1 15 16 12 17 15 4 15 -23 0 -29 25 -9 37 14 9 16 20
12 59 -6 46 -8 49 -37 52 -25 2 -37 -3 -53 -24 -11 -15 -21 -35 -21 -45 0 -11
-6 -19 -14 -19 -22 0 -27 -27 -5 -33 27 -7 24 -25 -6 -39 -18 -8 -24 -16 -19
-27 4 -9 6 -24 6 -33 0 -10 5 -18 11 -18 22 -1 -27 -30 -50 -30 -30 0 -63 29
-63 55 0 12 -5 26 -11 32 -7 7 -5 22 6 51 9 23 15 47 12 54 -3 7 -6 4 -6 -7
-1 -11 -6 -27 -12 -35 -8 -11 -9 -7 -5 19 5 27 4 31 -8 22 -11 -9 -11 1 0 66
15 84 59 259 76 302 39 95 89 198 127 261 11 19 24 42 28 50 3 8 16 29 29 45
33 45 66 115 54 115 -13 0 -178 -164 -257 -255 -91 -106 -187 -253 -259 -398
-89 -181 -86 -143 15 180 28 89 59 179 71 200 11 21 20 42 20 48 0 40 105 325
120 325 4 0 21 26 38 58 17 32 54 88 82 126 28 37 67 98 86 136 21 39 78 115
136 180 95 106 114 142 78 147 -8 1 -20 0 -25 -3z m2903 -683 c3 -8 -1 -12 -9
-9 -7 2 -15 10 -17 17 -3 8 1 12 9 9 7 -2 15 -10 17 -17z m102 -6 c0 -8 -9
-15 -20 -15 -22 0 -27 15 -7 23 21 9 27 7 27 -8z m-100 -59 c0 -3 -4 -8 -10
-11 -5 -3 -10 -1 -10 4 0 6 5 11 10 11 6 0 10 -2 10 -4z m190 -71 c0 -9 -6
-12 -15 -9 -8 4 -12 10 -9 15 8 14 24 10 24 -6z m-201 -130 c16 -20 16 -20 -6
-1 -13 11 -23 26 -22 35 0 14 1 14 6 1 3 -8 13 -24 22 -35z m278 -157 c-3 -8
-6 -5 -6 6 -1 11 2 17 5 13 3 -3 4 -12 1 -19z m-420 -70 c-3 -8 -6 -5 -6 6 -1
11 2 17 5 13 3 -3 4 -12 1 -19z m-2007 -18 c0 -5 -2 -10 -4 -10 -3 0 -8 5 -11
10 -3 6 -1 10 4 10 6 0 11 -4 11 -10z m2013 -110 c3 -11 1 -18 -4 -14 -5 3 -9
12 -9 20 0 20 7 17 13 -6z m-1846 -82 c-3 -8 -6 -5 -6 6 -1 11 2 17 5 13 3 -3
4 -12 1 -19z m-1415 -43 c-15 -16 -36 -37 -46 -46 -16 -14 -18 -24 -12 -65 4
-27 9 -70 13 -96 3 -27 9 -48 14 -48 5 0 9 -7 9 -16 0 -8 7 -22 15 -30 8 -9
15 -27 14 -42 l-1 -27 -8 25 c-4 14 -8 21 -9 15 -1 -9 3 -34 26 -165 3 -19 6
-45 5 -57 0 -13 4 -23 9 -23 5 0 9 -9 9 -20 0 -11 5 -20 11 -20 6 0 8 -9 4
-21 -5 -16 -4 -19 5 -14 9 5 11 4 6 -4 -7 -10 12 -80 24 -91 4 -3 14 -27 25
-55 30 -81 140 -293 197 -381 115 -177 262 -345 287 -330 5 3 11 28 15 56 4
27 9 50 11 50 2 0 26 -23 52 -51 26 -28 63 -63 83 -79 l35 -28 0 38 c0 28 -3
36 -14 32 -8 -3 -12 -1 -8 5 3 5 -8 26 -24 46 -17 20 -27 37 -24 37 13 0 68
-35 99 -62 17 -16 41 -28 54 -28 35 0 62 -17 112 -69 55 -58 114 -99 198 -136
58 -26 63 -31 57 -53 -7 -27 -36 -71 -47 -72 -4 0 -14 -7 -22 -16 -15 -14 -16
-11 -16 29 0 53 -30 97 -65 97 -32 0 -48 -24 -43 -65 2 -19 1 -35 -2 -35 -4 0
-39 21 -59 36 -1 2 4 13 13 26 22 32 20 74 -6 97 -48 45 -88 34 -88 -25 0 -18
-5 -36 -10 -39 -16 -10 -1 -52 50 -150 l48 -90 -17 -35 c-26 -55 -51 -80 -78
-76 -54 10 -133 90 -133 135 0 25 67 161 91 185 5 6 9 14 9 18 0 4 -129 8
-287 8 -159 0 -317 5 -353 10 -36 6 -198 13 -360 16 -162 3 -301 7 -308 10
-15 4 -12 36 23 229 13 72 26 157 30 190 4 33 11 67 15 75 4 8 13 56 19 105
17 133 21 157 32 185 l9 25 205 -2 c113 -1 205 2 205 5 -1 21 -21 29 -77 31
-42 2 -63 -1 -63 -9 0 -7 -5 -8 -12 -3 -7 4 -56 8 -109 9 -53 0 -102 4 -109 9
-8 5 -11 4 -7 -3 5 -6 0 -8 -13 -5 -16 4 -19 11 -14 32 4 14 10 30 14 35 5 4
79 8 167 8 87 0 161 2 165 5 5 2 1 18 -7 34 -9 16 -20 27 -26 23 -6 -3 -7 4
-3 22 5 18 3 25 -4 20 -7 -4 -10 4 -10 21 1 16 -8 47 -20 71 -11 24 -24 57
-28 75 -3 18 -15 49 -25 70 -11 20 -16 37 -12 37 5 0 3 4 -3 8 -16 11 -54 78
-54 95 0 9 18 26 39 37 l40 20 -19 43 c-12 26 -17 53 -13 68 6 23 6 23 -14 7
-52 -47 -23 11 37 73 19 19 42 44 51 55 8 11 25 20 37 20 21 0 21 -1 -6 -31z
m3304 -164 c-7 -105 -22 -240 -28 -246 -2 -2 -3 66 -4 151 0 85 3 149 8 142 5
-9 8 -4 8 13 0 24 7 39 18 39 3 0 2 -45 -2 -99z m-2986 24 c0 -8 -4 -15 -10
-15 -5 0 -10 7 -10 15 0 8 5 15 10 15 6 0 10 -7 10 -15z m-10 -111 c0 -8 -5
-12 -10 -9 -6 4 -8 11 -5 16 9 14 15 11 15 -7z m-200 -86 c0 -5 -9 -12 -20
-16 -18 -7 -19 -9 -4 -37 20 -39 15 -107 -8 -111 -23 -3 -35 16 -17 27 11 7
12 12 2 28 -14 23 -9 78 10 100 8 9 12 23 9 31 -4 13 -3 13 11 1 10 -7 17 -18
17 -23z m-65 -37 c-6 -5 -25 10 -25 20 0 5 6 4 14 -3 8 -7 12 -15 11 -17z
m3202 -53 c-3 -7 -5 -2 -5 12 0 14 2 19 5 13 2 -7 2 -19 0 -25z m-1322 -75
c-11 -29 -11 -35 3 -40 7 -3 12 4 12 17 0 19 2 20 15 10 19 -16 19 -25 -1 -44
-14 -15 -14 -16 0 -16 9 0 16 -8 17 -17 0 -11 3 -13 6 -5 2 6 9 12 15 12 6 0
8 -7 4 -15 -7 -19 8 -19 24 0 7 8 16 12 22 9 5 -3 0 -14 -12 -24 -11 -9 -20
-22 -20 -29 0 -6 -6 -11 -13 -11 -7 0 -14 -8 -15 -17 -1 -10 -3 -27 -4 -38 -2
-15 2 -19 20 -18 27 3 28 -11 2 -39 -10 -12 -17 -25 -14 -30 3 -4 0 -8 -5 -8
-6 0 -11 -10 -11 -22 -1 -40 -16 1 -30 77 -6 39 -16 79 -22 89 -5 10 -12 54
-15 97 -4 69 -3 79 12 79 12 0 15 -5 10 -17z m-1835 -55 c0 -49 -5 -47 -14 5
-4 23 -3 37 4 37 5 0 10 -19 10 -42z m1433 -45 c150 -178 197 -220 308 -274
24 -11 56 0 62 22 3 10 13 19 22 19 11 0 15 -5 11 -15 -3 -8 -1 -15 4 -15 6 0
10 -7 10 -15 0 -14 40 -42 40 -28 0 4 4 2 9 -6 8 -12 20 -13 78 -2 43 8 115
11 198 8 114 -4 140 -8 213 -35 67 -25 84 -28 88 -17 3 8 3 18 0 23 -3 6 1 13
10 16 10 4 12 11 6 22 -5 8 -5 37 -1 62 4 26 4 51 2 56 -3 4 4 5 16 1 16 -5
20 -3 15 9 -9 23 24 9 56 -23 21 -22 25 -35 24 -86 -1 -49 -20 -146 -50 -245
-2 -8 -11 -42 -18 -75 -8 -33 -15 -53 -16 -45 0 8 -8 -1 -16 -20 -8 -19 -29
-44 -47 -55 -36 -22 -60 -32 -37 -16 8 6 10 11 4 11 -6 0 -14 -3 -18 -7 -4 -5
-11 -8 -14 -8 -18 -2 -58 -19 -63 -27 -3 -5 -46 -11 -95 -14 -49 -3 -102 -9
-117 -14 -19 -6 -26 -6 -21 1 4 8 -4 9 -27 3 -43 -10 -98 -8 -169 7 -30 6 -72
9 -92 6 -25 -3 -38 -1 -38 6 0 7 -5 6 -11 -3 -8 -11 -12 -12 -16 -2 -2 6 -9
10 -14 6 -5 -3 -9 0 -9 7 0 8 -4 8 -13 1 -10 -9 -18 -6 -31 9 -15 19 -19 19
-34 6 -9 -8 -23 -12 -29 -10 -7 3 -13 0 -13 -6 0 -6 -14 -11 -31 -11 -17 0
-39 -4 -49 -10 -15 -8 -105 -20 -170 -23 -8 0 -21 -9 -30 -19 -15 -19 -66 -24
-145 -14 -16 3 -65 7 -107 10 -42 3 -106 10 -143 16 -36 6 -71 7 -77 4 -6 -4
-8 -3 -5 3 7 11 -23 23 -56 23 -21 0 -80 42 -117 83 -14 15 -39 43 -57 62 -98
106 -144 196 -90 180 29 -9 30 -11 57 -77 12 -32 23 -58 24 -58 0 0 1 39 1 86
-1 71 2 88 17 98 10 7 15 16 10 21 -4 4 1 5 11 2 21 -8 22 -3 1 17 -8 9 -11
16 -6 16 5 0 17 -9 27 -20 12 -14 22 -17 34 -11 9 5 41 16 71 24 30 9 80 23
110 32 30 9 71 19 90 22 46 9 183 6 243 -6 48 -9 107 6 90 23 -4 4 -6 22 -5
41 3 38 -19 64 -80 96 -21 11 -38 24 -38 29 0 13 60 13 99 -1 41 -14 48 -7 26
28 -14 21 -15 28 -5 31 8 3 32 24 54 48 23 24 44 43 49 44 4 0 17 -12 30 -27z
m552 -36 c6 -5 3 -7 -7 -3 -10 3 -20 1 -23 -5 -4 -5 -11 -7 -16 -3 -6 3 -2 12
8 19 10 7 20 10 23 7 3 -4 10 -11 15 -15z m-2179 -52 c-10 -8 -24 -11 -30 -8
-6 4 0 10 14 14 36 10 37 10 16 -6z m64 -4 c0 -5 -7 -11 -15 -15 -9 -3 -15 0
-15 9 0 8 7 15 15 15 8 0 15 -4 15 -9z m204 -66 c3 -8 1 -15 -4 -15 -6 0 -10
7 -10 15 0 8 2 15 4 15 2 0 6 -7 10 -15z m2066 -55 c0 -5 -5 -10 -11 -10 -5 0
-7 -4 -4 -10 3 -5 2 -10 -3 -10 -15 0 -22 28 -9 34 20 8 27 7 27 -4z m1188
-82 c8 -11 35 -178 48 -303 2 -22 11 -98 19 -170 26 -239 28 -284 13 -290 -7
-3 -150 -9 -318 -15 -662 -23 -892 -19 -929 14 -19 17 -20 17 -33 -3 -12 -20
-38 -29 -38 -13 0 4 5 25 10 47 6 25 5 44 -1 51 -7 9 4 17 43 30 126 41 199
83 274 156 41 39 74 66 74 60 0 -7 5 -12 11 -12 6 0 9 6 6 14 -3 8 1 17 10 20
9 4 13 14 10 26 -3 11 -1 18 4 14 14 -8 11 -32 -7 -59 -15 -24 -15 -26 7 -44
l23 -18 -17 -71 c-9 -38 -17 -73 -17 -76 0 -16 28 -2 64 32 21 20 36 32 33 26
-8 -14 125 -85 202 -108 76 -22 133 -20 263 10 155 35 147 32 119 55 -12 10
-27 17 -31 14 -4 -3 -12 1 -18 8 -17 22 5 58 48 74 32 13 42 23 49 50 6 22 6
44 0 60 -11 28 4 63 26 63 24 0 17 30 -9 40 -25 9 -41 56 -22 64 7 3 6 8 -4
15 -12 9 -13 13 -2 20 10 6 14 38 16 110 1 77 5 104 16 111 21 13 46 12 58 -2z
m-263 -93 c-5 -45 -10 -55 -26 -55 -10 0 -19 5 -19 12 0 17 43 109 48 103 2
-2 1 -29 -3 -60z m-3558 -157 c-3 -8 -6 -5 -6 6 -1 11 2 17 5 13 3 -3 4 -12 1
-19z m4911 -13 c-3 -3 -9 2 -12 12 -6 14 -5 15 5 6 7 -7 10 -15 7 -18z m60
-66 c10 -13 8 -19 -7 -33 -18 -16 -19 -16 -16 16 3 39 4 43 8 37 1 -2 8 -11
15 -20z m-1770 -228 c30 -17 1 -29 -47 -19 l-43 10 22 23 c19 21 24 22 37 10
8 -8 22 -19 31 -24z m1623 1 c9 -10 19 -32 22 -48 4 -16 9 -40 13 -54 5 -25 5
-25 -11 -5 -32 39 -66 105 -60 115 9 15 18 12 36 -8z m-2891 -12 c3 -5 45 -11
95 -15 49 -3 91 -8 94 -10 10 -11 -11 -35 -32 -35 -68 0 -213 43 -202 60 6 9
39 9 45 0z m2570 -25 c-11 -13 -10 -18 6 -30 10 -8 23 -15 29 -15 5 0 4 -5 -2
-11 -12 -12 11 -83 33 -106 7 -7 15 -26 19 -43 4 -16 11 -30 16 -30 5 0 9 -6
9 -14 0 -8 10 -23 23 -33 12 -10 29 -34 37 -53 7 -19 19 -42 25 -50 22 -27 46
-81 42 -93 -2 -7 -16 12 -31 41 -14 28 -31 52 -37 52 -5 0 -7 -4 -4 -10 3 -5
1 -10 -4 -10 -6 0 -11 -9 -11 -19 0 -11 -4 -23 -10 -26 -5 -3 -10 0 -10 7 0
20 -56 135 -71 144 -7 4 -14 3 -17 -4 -7 -22 -30 -13 -53 21 -13 17 -38 47
-57 66 -32 32 -47 66 -57 128 -2 15 1 20 11 16 8 -3 14 1 14 11 0 9 9 25 20
36 11 11 20 25 20 30 0 6 16 10 36 10 32 0 35 -2 24 -15z m-3098 -16 c30 -15
37 -23 28 -29 -16 -10 -38 0 -64 29 -24 26 -16 26 36 0z m1893 11 c17 -7 15
-9 -12 -9 -17 -1 -35 4 -38 9 -7 12 22 12 50 0z m1642 -112 c-3 -8 -6 -5 -6 6
-1 11 2 17 5 13 3 -3 4 -12 1 -19z m-50 -17 c2 -10 16 -24 29 -30 13 -6 23
-14 22 -18 -1 -5 3 -18 10 -29 6 -12 9 -24 6 -26 -2 -3 2 -11 11 -18 8 -7 15
-17 15 -22 0 -5 14 -39 30 -75 17 -35 30 -68 30 -73 0 -5 3 -10 8 -12 8 -3 74
-229 71 -244 -1 -5 0 -12 1 -16 1 -5 3 -20 5 -35 1 -16 5 -45 9 -65 6 -27 5
-38 -4 -38 -7 0 -9 8 -5 21 5 16 4 19 -5 14 -8 -5 -11 -4 -7 2 4 6 0 24 -8 39
-8 16 -15 35 -15 42 0 7 -4 20 -9 30 -23 44 -79 242 -74 261 3 12 1 21 -6 21
-6 0 -11 6 -11 14 0 8 -11 36 -24 63 -14 26 -37 75 -52 108 -15 33 -30 62 -34
65 -13 10 -19 40 -9 40 6 0 13 -8 16 -19z m158 -29 c-3 -3 -11 0 -18 7 -9 10
-8 11 6 5 10 -3 15 -9 12 -12z m-2338 -104 c-3 -8 -6 -5 -6 6 -1 11 2 17 5 13
3 -3 4 -12 1 -19z m-317 -16 c0 -4 -15 -31 -34 -60 -30 -48 -34 -50 -40 -30
-8 33 -6 47 4 23 8 -19 9 -19 9 3 1 13 5 21 9 18 4 -2 17 9 27 25 21 30 25 34
25 21z m351 -24 c6 -13 8 -20 4 -16 -4 4 -17 2 -29 -4 -17 -8 -19 -8 -9 2 6 7
9 19 6 26 -9 23 15 16 28 -8z m-3626 -20 c-16 -57 -75 -147 -75 -115 0 11 36
113 46 129 3 5 12 8 20 8 11 0 14 -6 9 -22z m3665 -58 c12 -25 24 -61 25 -81
3 -41 30 -99 45 -99 6 0 16 -11 22 -25 10 -22 8 -29 -12 -50 -13 -14 -30 -23
-38 -20 -8 3 -10 0 -6 -6 4 -7 1 -10 -7 -7 -7 2 -23 -4 -34 -14 -11 -11 -21
-14 -23 -8 -2 5 -10 10 -18 10 -9 0 -13 4 -10 9 3 5 -4 11 -16 14 -12 4 -19 9
-15 13 3 3 -3 24 -13 45 -11 21 -20 45 -20 54 0 25 31 115 40 115 4 0 11 10
15 23 4 12 8 25 10 30 1 4 3 10 4 15 1 4 6 0 11 -8 5 -8 10 -10 10 -5 0 6 -5
17 -10 25 -9 13 -11 13 -20 0 -5 -8 -10 -10 -10 -4 0 16 10 23 30 21 11 -1 27
-19 40 -47z m-475 -21 c-5 -25 -13 -35 -21 -27 -5 6 13 48 21 48 2 0 2 -10 0
-21z m-745 -34 c9 -11 32 -15 83 -15 53 0 78 -5 103 -21 126 -78 52 -181 -136
-192 -53 -2 -63 -23 -31 -59 12 -12 21 -27 21 -34 0 -17 139 -17 161 -1 18 14
33 46 30 65 -1 6 8 12 20 12 18 0 21 -4 16 -28 -4 -22 3 -43 33 -89 21 -34 51
-94 66 -135 23 -62 27 -90 28 -183 l1 -111 -33 -34 c-18 -19 -38 -47 -45 -62
-15 -35 -35 -36 -43 -3 -6 23 -10 25 -43 19 -20 -4 -37 -10 -39 -15 -9 -22
-45 -59 -59 -59 -11 0 -9 -5 8 -18 l22 -19 -36 -34 -36 -34 30 -45 c16 -24 31
-46 34 -48 2 -2 19 7 37 21 58 44 111 63 181 67 4 0 7 7 7 15 0 12 5 13 27 4
l27 -10 -27 25 c-29 27 -43 67 -31 93 9 22 11 29 13 48 2 21 50 65 90 83 21 8
79 17 136 20 93 4 105 3 150 -21 28 -14 63 -39 79 -56 25 -26 28 -35 23 -68
-9 -53 -35 -84 -99 -116 -47 -24 -72 -29 -166 -34 -94 -5 -115 -3 -137 11 -20
13 -25 14 -25 3 0 -8 11 -19 25 -25 49 -22 99 -134 56 -124 -7 1 -10 -2 -7 -7
12 -18 -16 -59 -55 -80 -21 -12 -39 -19 -39 -15 0 3 -6 2 -13 -5 -12 -9 -53
-14 -192 -25 -17 -1 -36 -6 -43 -10 -8 -4 -19 5 -32 26 l-20 34 -59 -56 c-33
-31 -68 -56 -78 -57 -10 0 -47 -5 -82 -10 -67 -11 -101 -7 -101 9 0 5 -5 6
-10 3 -18 -11 -69 51 -82 99 -11 41 -28 63 -28 35 0 -6 -9 -8 -20 -4 -12 4
-31 0 -45 -9 -13 -9 -33 -16 -43 -16 -10 0 -21 -3 -25 -6 -11 -11 -201 -11
-219 0 -10 6 -25 32 -33 57 -9 26 -24 53 -33 62 -16 14 -112 35 -197 43 -22 2
-72 8 -112 14 -40 5 -79 7 -88 4 -13 -5 -15 -1 -11 22 10 55 24 59 138 45 57
-7 135 -17 173 -22 39 -4 84 -11 100 -14 27 -6 33 -2 62 38 17 25 53 58 80 74
41 24 59 28 118 28 87 -1 140 -26 186 -90 32 -45 33 -45 53 -26 12 10 37 28
56 39 19 11 34 26 32 33 -27 110 -55 331 -49 386 2 22 1 47 -3 53 -17 28 -155
22 -271 -10 -22 -6 -62 -35 -102 -73 -92 -88 -168 -157 -173 -157 -10 0 -2 81
12 124 18 53 68 148 75 142 2 -2 3 22 1 54 -3 44 1 67 18 100 12 23 23 40 25
38 3 -2 1 -27 -4 -56 -4 -29 -4 -52 0 -52 5 0 9 6 10 13 5 92 12 112 86 228
76 118 76 118 95 97 10 -12 16 -24 13 -27 -4 -3 -10 1 -14 8 -5 7 -14 10 -20
7 -6 -4 -9 -12 -6 -17 4 -5 0 -12 -8 -15 -9 -3 -13 -17 -11 -39 1 -19 -2 -37
-7 -40 -5 -4 -6 1 -3 9 4 9 1 16 -6 16 -9 0 -9 4 1 18 13 15 12 16 -3 4 -9 -8
-14 -20 -11 -28 3 -8 -1 -14 -11 -14 -10 0 -16 -8 -15 -22 0 -22 1 -22 9 -3 7
17 9 17 9 3 1 -11 6 -15 16 -12 8 4 15 2 15 -2 0 -5 21 -9 48 -9 30 0 56 -7
72 -19 l25 -18 -25 7 c-14 4 -34 9 -45 12 -16 5 -18 3 -8 -8 7 -8 8 -20 4 -27
-4 -7 -5 -26 -3 -43 3 -22 13 -33 38 -44 19 -8 34 -19 34 -24 0 -6 20 -16 45
-22 25 -6 45 -14 45 -18 0 -3 -30 -5 -67 -4 l-68 1 65 -7 c36 -4 79 -15 96
-24 l32 -16 37 77 c53 109 85 216 85 279 0 51 37 183 51 183 4 0 12 -7 19 -15z
m714 -1 c4 -10 1 -14 -6 -12 -15 5 -23 28 -10 28 5 0 13 -7 16 -16z m157 -38
c5 3 9 -7 9 -23 0 -15 12 -74 26 -131 22 -85 24 -108 15 -129 -7 -16 -17 -23
-27 -19 -8 3 -49 -6 -90 -20 -41 -13 -104 -28 -140 -31 -56 -5 -66 -3 -78 13
-10 12 -11 23 -5 31 7 7 6 13 0 17 -22 14 48 123 88 137 46 17 70 32 65 40 -3
5 18 25 46 45 27 20 50 40 50 45 0 15 24 38 28 28 2 -5 8 -7 13 -3z m-3546
-75 c-3 -6 -11 -11 -17 -11 -6 0 -6 6 2 15 14 17 26 13 15 -4z m2323 -83 c16
-22 15 -22 -18 3 -39 29 -57 62 -20 36 12 -8 29 -26 38 -39z m-2206 -133 c1
-35 2 -40 5 -18 2 17 11 34 20 37 11 5 13 2 8 -11 -4 -10 -13 -42 -21 -72 -8
-30 -18 -60 -23 -65 -13 -18 -30 -88 -36 -150 -9 -91 -39 -125 -66 -74 -26 48
15 346 58 432 l15 29 19 -29 c11 -17 20 -49 21 -79z m2255 19 c-3 -3 -12 -4
-19 -1 -8 3 -5 6 6 6 11 1 17 -2 13 -5z m3086 -54 c4 -16 0 -20 -19 -20 -13 0
-24 6 -24 13 0 32 35 37 43 7z m-5473 -10 c0 -5 -5 -10 -11 -10 -5 0 -7 5 -4
10 3 6 8 10 11 10 2 0 4 -4 4 -10z m687 -50 c-7 -17 -13 -26 -15 -21 -3 10 15
51 22 51 3 0 -1 -14 -7 -30z m4767 21 c3 -5 0 -14 -8 -20 -10 -9 -15 -8 -19 3
-9 22 15 37 27 17z m830 -27 c3 -8 2 -12 -4 -9 -6 3 -10 10 -10 16 0 14 7 11
14 -7z m-892 -124 c17 -41 53 -108 80 -148 27 -41 47 -77 43 -80 -6 -6 -54 47
-55 61 0 4 -17 31 -37 60 -20 28 -46 66 -57 82 -12 17 -24 32 -28 33 -5 2 -8
19 -8 39 0 59 29 37 62 -47z m822 4 c4 -34 2 -49 -9 -61 -13 -13 -15 -7 -15
52 0 74 14 80 24 9z m-5642 28 c13 -13 -23 -87 -42 -87 -24 0 -43 46 -32 76 8
21 16 26 38 23 14 -1 31 -7 36 -12z m3004 -8 c65 -21 137 -56 147 -71 4 -7 15
-9 24 -6 11 4 14 2 11 -8 -3 -8 9 -23 28 -36 31 -22 53 -71 39 -92 -3 -6 4
-41 15 -79 13 -44 20 -89 18 -122 -3 -46 -6 -54 -25 -56 -19 -3 -25 3 -37 49
-8 28 -18 66 -22 82 -10 46 -92 193 -115 205 -44 24 -139 48 -195 50 -82 3
-87 2 -80 -16 3 -9 -5 -30 -20 -50 -22 -28 -33 -34 -65 -34 -21 0 -40 4 -43 9
-8 13 29 56 69 81 25 15 35 29 35 46 0 29 31 44 91 44 24 0 38 4 34 10 -9 15
35 12 91 -6z m537 9 c4 -3 -1 -15 -10 -25 -21 -23 -3 -49 20 -29 12 9 16 8 21
-5 6 -16 -17 -58 -27 -48 -3 3 -34 -15 -69 -40 -114 -83 -111 -79 -103 -114 3
-18 10 -32 13 -32 4 1 37 29 74 63 69 65 128 105 128 88 0 -5 -11 -18 -25 -29
-14 -11 -25 -25 -25 -31 0 -16 10 -14 32 6 10 9 18 12 18 6 0 -5 -20 -24 -45
-42 -42 -30 -45 -31 -45 -12 0 12 -3 21 -6 21 -3 0 -28 -23 -55 -51 -37 -38
-49 -58 -46 -73 3 -12 0 -39 -7 -61 l-12 -40 -8 40 c-14 77 -57 194 -87 235
-37 51 -40 47 116 125 106 53 134 62 148 48z m-3433 -63 c5 0 10 -15 12 -32 3
-28 8 -34 33 -38 27 -5 30 -9 30 -40 0 -36 20 -70 42 -70 7 0 13 -6 13 -14 0
-8 10 -18 22 -22 12 -3 28 -13 36 -20 7 -8 17 -12 21 -10 4 3 13 -4 19 -15 12
-19 11 -19 -10 -8 -33 17 -110 70 -132 91 -30 27 -48 22 -96 -28 -54 -55 -182
-151 -342 -257 -106 -70 -119 -82 -141 -129 -36 -77 -44 -97 -46 -124 -2 -30
-17 -5 -16 28 3 67 24 116 60 138 19 12 43 31 52 44 10 12 38 36 63 53 60 42
190 170 190 187 0 8 4 16 8 18 13 5 108 188 122 233 21 73 20 72 36 43 8 -16
19 -28 24 -28z m190 2 c0 -35 7 -60 28 -93 40 -64 88 -160 96 -191 5 -21 3
-28 -8 -28 -8 0 -18 5 -22 12 -4 7 -3 8 4 4 16 -10 15 2 0 19 -29 30 -47 55
-40 55 4 0 -6 11 -22 25 -16 14 -25 25 -20 25 5 0 -10 18 -33 39 -40 37 -41
40 -39 96 2 43 8 62 21 72 30 21 35 16 35 -35z m4418 38 c15 0 22 -6 22 -20 0
-23 -28 -40 -68 -40 -24 0 -31 5 -34 24 -6 31 10 49 37 42 11 -3 30 -6 43 -6z
m-4281 -164 c6 -70 -6 -88 -25 -38 -14 35 -17 82 -7 105 13 31 27 3 32 -67z
m4302 48 c-19 -23 -117 -84 -134 -84 -8 0 -15 -4 -15 -9 0 -12 -63 -41 -90
-41 -15 0 -20 5 -18 18 2 11 11 16 25 14 11 -2 36 6 55 18 18 11 41 20 51 20
23 0 69 35 59 44 -3 4 1 4 9 1 9 -3 23 3 34 15 21 24 44 28 24 4z m-4524 -14
c-3 -5 -11 -10 -16 -10 -6 0 -7 5 -4 10 3 6 11 10 16 10 6 0 7 -4 4 -10z
m4319 -45 c-7 -16 -24 -21 -24 -6 0 8 7 13 27 20 1 1 0 -6 -3 -14z m-1244 -45
c11 -21 4 -25 -19 -11 -7 5 -10 14 -7 20 10 15 14 14 26 -9z m1588 -16 c-10
-10 -28 6 -28 24 0 15 1 15 17 -1 9 -9 14 -19 11 -23z m-1807 12 c34 -14 85
-63 105 -101 6 -12 7 -36 3 -60 -4 -22 -5 -64 -2 -92 3 -32 2 -53 -4 -53 -15
0 -40 31 -48 60 -4 14 -13 32 -20 40 -7 8 -15 29 -19 45 -8 32 -57 115 -90
153 l-19 22 30 0 c17 0 46 -6 64 -14z m419 -25 c0 -5 -7 -12 -16 -15 -14 -5
-15 -4 -4 9 14 17 20 19 20 6z m1495 -21 c3 -5 1 -10 -4 -10 -6 0 -11 5 -11
10 0 6 2 10 4 10 3 0 8 -4 11 -10z m59 -76 c3 -8 2 -12 -4 -9 -6 3 -10 10 -10
16 0 14 7 11 14 -7z m-2654 -20 c0 -8 -4 -12 -10 -9 -5 3 -10 10 -10 16 0 5 5
9 10 9 6 0 10 -7 10 -16z m2720 -57 c0 -6 -11 0 -25 13 -14 13 -25 28 -25 33
0 6 11 0 25 -13 14 -13 25 -28 25 -33z m-2766 28 c-4 -8 -18 -15 -33 -15 l-26
0 25 14 c33 19 40 19 34 1z m1166 -16 c6 -10 7 -19 2 -19 -5 0 -14 12 -20 26
-14 29 2 24 18 -7z m2203 -51 c26 4 20 -12 -13 -36 -42 -31 -62 -30 -50 4 6
14 8 29 5 34 -3 5 0 21 6 37 l11 28 12 -35 c8 -24 17 -34 29 -32z m-573 7 c11
-13 10 -14 -4 -9 -9 3 -16 10 -16 15 0 13 6 11 20 -6z m93 -75 c32 -23 55 -45
52 -48 -7 -7 -118 82 -123 99 -2 9 -1 10 5 3 4 -6 34 -30 66 -54z m-1963 25
c0 -3 -9 -33 -20 -66 -12 -34 -18 -64 -15 -67 7 -7 60 51 91 101 35 53 40 46
8 -13 -31 -56 -90 -115 -100 -99 -3 6 -12 8 -20 5 -42 -16 -25 98 19 129 22
15 37 19 37 10z m-475 -55 c4 -6 -5 -10 -20 -10 -15 0 -24 4 -20 10 3 6 12 10
20 10 8 0 17 -4 20 -10z m-70 -24 c-14 -10 -26 -11 -47 -4 -39 14 -35 18 19
18 42 0 45 -1 28 -14z m195 6 c0 -9 -44 -32 -61 -32 -20 0 -3 24 22 31 35 10
39 10 39 1z m708 -4 c7 -7 12 -17 12 -24 0 -7 16 -28 35 -47 38 -38 45 -73 18
-93 -15 -11 -16 -16 -5 -33 7 -12 15 -55 19 -95 6 -73 6 -75 52 -113 25 -21
56 -48 69 -61 12 -12 25 -22 28 -22 16 0 139 -100 230 -187 24 -23 53 -45 64
-48 23 -7 24 -14 9 -35 -8 -11 -12 -12 -16 -2 -6 16 -34 16 -30 0 1 -8 -10
-14 -25 -16 -29 -3 -40 -22 -13 -22 9 0 12 -6 9 -15 -4 -9 0 -15 10 -15 10 0
13 -6 10 -15 -8 -19 -24 -19 -24 0 0 20 -16 19 -24 -2 -6 -14 -8 -14 -21 3
-13 18 -14 18 -21 1 -6 -16 -8 -16 -23 -3 -15 14 -20 12 -49 -15 -18 -17 -36
-28 -40 -25 -3 4 -2 10 4 14 6 4 13 14 16 23 5 12 -1 16 -29 17 -19 1 -41 6
-48 12 -9 7 -16 6 -25 -5 -7 -8 -18 -15 -24 -15 -6 0 -5 4 3 9 11 7 9 11 -9
21 -20 11 -22 10 -17 -4 7 -18 -8 -32 -18 -16 -10 17 -25 1 -21 -23 1 -12 1
-16 -1 -9 -6 17 -20 15 -33 -5 -9 -15 -10 -13 -5 11 5 25 4 28 -8 17 -12 -9
-16 -9 -21 1 -3 7 -3 2 0 -12 4 -23 2 -25 -35 -27 -22 -1 -43 2 -46 7 -3 6
-12 10 -18 10 -8 0 -7 -3 2 -9 11 -7 10 -11 -5 -19 -30 -15 -84 -23 -84 -12 0
6 -6 10 -14 10 -7 0 -16 10 -19 22 -5 16 -9 19 -19 11 -16 -14 -68 -5 -75 13
-2 7 -11 10 -19 7 -8 -3 -14 0 -14 6 0 6 -6 9 -12 7 -7 -1 -10 -1 -5 1 14 9 7
23 -13 23 -11 0 -20 4 -20 9 0 18 19 22 39 9 25 -15 39 -4 21 17 -7 8 -9 15
-4 15 5 1 -2 10 -15 20 -21 18 -20 25 3 21 4 -1 17 1 28 5 16 5 18 8 7 15 -8
5 -9 9 -3 9 6 0 14 -3 18 -7 21 -22 226 -15 226 8 0 5 13 15 29 23 30 16 49
48 32 54 -21 7 -11 20 12 15 l22 -6 -22 20 c-27 24 -29 39 -7 47 13 5 14 9 4
21 -10 13 -9 19 5 35 22 25 18 25 -36 1 -46 -21 -62 -19 -53 4 10 24 -21 28
-82 10 -81 -23 -84 -20 -77 70 7 88 4 92 -63 93 -39 1 -84 18 -84 32 0 4 12
20 26 38 l27 32 74 -67 75 -67 40 42 c22 23 46 42 54 42 9 0 12 4 9 10 -3 5 4
29 16 52 23 45 30 113 16 161 -8 29 1 35 21 15z m-528 -162 c0 -2 3 -11 6 -20
4 -10 -5 -20 -25 -31 -17 -8 -31 -14 -31 -12 0 21 25 67 36 67 8 0 14 -2 14
-4z m-3540 -51 c0 -8 -9 -15 -19 -15 -29 0 -35 18 -9 23 13 2 24 5 26 6 1 0 2
-6 2 -14z m3813 -289 c24 -17 25 -19 12 -40 -23 -35 -98 -68 -147 -64 l-43 3
-3 47 c-3 45 -2 48 30 62 42 18 116 14 151 -8z m-2808 -56 c-3 -5 -12 -10 -18
-10 -7 0 -6 4 3 10 19 12 23 12 15 0z m2439 -2 c-5 -8 -2 -9 10 -5 26 10 81
-36 84 -69 4 -57 -47 -96 -88 -67 -17 12 -19 17 -9 24 10 6 11 9 2 9 -7 0 -13
7 -13 15 0 8 -4 15 -10 15 -5 0 -9 11 -8 25 1 14 6 25 10 25 4 0 7 3 7 8 -3
18 2 32 12 32 5 0 7 -5 3 -12z m-3549 -58 c-3 -5 -11 -10 -16 -10 -6 0 -7 5
-4 10 3 6 11 10 16 10 6 0 7 -4 4 -10z m503 -13 c2 -12 -2 -14 -20 -9 -12 3
-17 7 -10 10 7 2 9 8 6 14 -4 6 -1 9 7 6 8 -3 15 -12 17 -21z m302 13 c0 -5
-5 -10 -11 -10 -5 0 -7 5 -4 10 3 6 8 10 11 10 2 0 4 -4 4 -10z m-145 -10 c-3
-5 -10 -10 -16 -10 -5 0 -9 5 -9 10 0 6 7 10 16 10 8 0 12 -4 9 -10z m2822
-65 c9 -28 6 -33 -35 -74 -43 -41 -52 -45 -107 -39 -8 1 -19 16 -25 34 -6 18
-18 34 -27 36 -25 5 68 61 104 62 24 1 35 7 43 25 11 23 11 23 24 5 7 -10 17
-32 23 -49z m-2927 34 c0 -11 -3 -11 -24 -3 -23 9 -20 23 4 17 11 -3 20 -9 20
-14z m-460 7 c0 -2 -7 -6 -15 -10 -8 -3 -15 -1 -15 4 0 6 7 10 15 10 8 0 15
-2 15 -4z m137 -2 c-3 -3 -12 -4 -19 -1 -8 3 -5 6 6 6 11 1 17 -2 13 -5z m163
-4 c0 -5 -4 -10 -10 -10 -5 0 -10 5 -10 10 0 6 5 10 10 10 6 0 10 -4 10 -10z
m320 0 c0 -5 -7 -10 -15 -10 -8 0 -15 5 -15 10 0 6 7 10 15 10 8 0 15 -4 15
-10z m2160 -22 l58 -23 5 -60 c7 -69 -2 -83 -37 -67 -20 9 -28 8 -41 -4 -18
-18 -20 -11 -3 16 14 22 3 39 -14 22 -27 -27 -121 0 -133 37 -3 12 -17 24 -31
27 -25 6 -32 20 -13 26 5 2 12 12 14 23 2 11 4 21 4 23 1 1 31 2 67 2 45 0 85
-7 124 -22z m-2904 -13 c16 -12 16 -14 3 -15 -9 0 -22 7 -29 15 -16 19 0 19
26 0z m169 5 c3 -5 -1 -10 -10 -10 -9 0 -13 5 -10 10 3 6 8 10 10 10 2 0 7 -4
10 -10z m165 -6 c0 -9 -7 -14 -17 -12 -24 4 -27 23 -3 25 12 1 20 -4 20 -13z
m315 6 c-3 -5 -11 -10 -16 -10 -6 0 -7 5 -4 10 3 6 11 10 16 10 6 0 7 -4 4
-10z m175 -11 c0 -5 -9 -9 -20 -9 -19 0 -26 11 -14 23 8 8 34 -3 34 -14z
m-322 -1 c-7 -19 -38 -22 -38 -4 0 10 9 16 21 16 12 0 19 -5 17 -12z m-416
-30 c-8 -8 -17 -8 -34 0 -22 10 -21 11 12 11 26 1 31 -2 22 -11z m164 -3 c14
-13 13 -15 -3 -15 -10 0 -27 7 -37 15 -19 15 -19 15 3 15 12 0 29 -7 37 -15z
m158 9 c9 -3 16 -10 16 -15 0 -15 -47 -10 -60 6 -10 12 -9 15 8 15 11 0 27 -3
36 -6z m151 0 c13 -5 14 -8 3 -15 -19 -12 -25 -11 -32 6 -6 16 3 19 29 9z
m155 -4 c0 -5 -4 -10 -9 -10 -6 0 -13 5 -16 10 -3 6 1 10 9 10 9 0 16 -4 16
-10z m69 -37 c2 -2 -5 -3 -16 -3 -11 0 -20 7 -20 15 0 12 3 12 16 3 9 -7 18
-14 20 -15z m2351 6 c0 -6 -4 -7 -10 -4 -5 3 -10 11 -10 16 0 6 5 7 10 4 6 -3
10 -11 10 -16z m35 -37 c-3 -8 -5 -18 -5 -23 0 -5 -4 -9 -9 -9 -14 0 -23 37
-15 62 6 21 7 21 20 3 8 -11 12 -26 9 -33z m-2995 34 c0 -2 -13 -6 -30 -8 -16
-3 -30 -1 -30 4 0 4 14 8 30 8 17 0 30 -2 30 -4z m130 0 c0 -11 -19 -15 -25
-6 -3 5 1 10 9 10 9 0 16 -2 16 -4z m169 -13 c0 -10 -3 -13 -5 -6 -3 7 -11 10
-19 7 -7 -3 -16 -1 -20 5 -4 7 4 11 19 11 18 0 26 -5 25 -17z m-392 -29 c-20
-19 -67 -26 -67 -11 0 20 6 24 45 23 26 -1 31 -4 22 -12z m148 7 c16 -6 14 -9
-15 -14 -24 -5 -38 -3 -49 8 -14 13 -12 15 14 14 17 0 39 -4 50 -8z m157 -13
c-12 -12 -44 -7 -49 8 -2 7 8 9 27 6 21 -3 28 -8 22 -14z m181 12 c7 0 4 -7
-7 -15 -14 -11 -22 -11 -37 -2 -13 8 -15 13 -6 19 7 4 18 6 25 3 8 -3 19 -5
25 -5z m137 -10 c0 -5 -4 -10 -9 -10 -6 0 -13 5 -16 10 -3 6 1 10 9 10 9 0 16
-4 16 -10z m-405 -31 c14 -6 10 -7 -14 -3 -22 4 -31 3 -27 -4 3 -6 2 -13 -4
-17 -5 -3 -10 1 -10 9 0 8 -8 20 -17 26 -14 9 -11 9 17 4 19 -4 44 -11 55 -15z
m155 0 c0 -6 6 -7 13 -3 8 5 7 2 -2 -10 -10 -12 -16 -14 -21 -5 -4 6 -13 8
-19 5 -6 -4 -11 -1 -11 6 0 8 9 14 20 15 11 1 20 -3 20 -8z m167 5 c21 -6 21
-7 6 -22 -12 -12 -18 -13 -21 -4 -2 6 -10 12 -18 12 -8 0 -14 5 -14 10 0 11
15 12 47 4z m153 -15 c0 -5 -9 -9 -20 -9 -11 0 -20 6 -20 14 0 9 7 12 20 9 11
-3 20 -9 20 -14z m2409 -12 c6 -8 8 -17 4 -20 -9 -10 -46 -8 -63 3 -12 7 -10
11 10 19 34 13 36 13 49 -2z m-104 -7 c17 -7 16 -9 -9 -9 -16 -1 -44 -10 -62
-22 -35 -21 -43 -14 -28 25 7 18 64 21 99 6z m265 -21 c0 -20 -15 -26 -25 -9
-3 6 -1 10 5 10 7 0 9 7 6 16 -3 8 -2 12 4 9 6 -3 10 -15 10 -26z m-2977 6
c-3 -17 -32 -17 -49 0 -16 15 -14 16 17 13 19 -2 33 -7 32 -13z m174 -3 c-9
-8 -24 -11 -40 -6 -41 10 -32 23 13 21 34 -1 38 -3 27 -15z m300 2 c-3 -3 -12
-4 -19 -1 -8 3 -5 6 6 6 11 1 17 -2 13 -5z m3323 -34 c-18 -11 -32 -8 -37 7
-5 14 29 23 42 11 6 -6 5 -12 -5 -18z m-3740 -1 c0 -5 -9 -9 -20 -9 -22 0 -27
16 -7 23 15 5 27 -1 27 -14z m170 5 l25 -8 -30 -6 c-30 -6 -55 4 -55 22 0 9 8
8 60 -8z m-140 2 c0 -3 -4 -8 -10 -11 -5 -3 -10 -1 -10 4 0 6 5 11 10 11 6 0
10 -2 10 -4z m322 -13 c-6 -3 -9 -10 -5 -15 4 -8 -2 -9 -18 -4 -13 4 -30 8
-36 8 -13 1 -17 11 -8 19 2 3 21 3 42 1 21 -3 32 -7 25 -9z m2530 -29 c-4 -23
-6 -24 -14 -10 -11 19 -3 50 11 42 4 -3 6 -17 3 -32z"/>
<path d="M1574 3569 c-3 -6 -2 -15 3 -20 5 -5 9 -1 9 11 0 23 -2 24 -12 9z"/>
<path d="M1630 3423 c1 -14 49 -98 50 -87 0 13 -39 94 -45 94 -3 0 -5 -3 -5
-7z"/>
<path d="M3895 2010 c-3 -5 -1 -10 4 -10 6 0 11 5 11 10 0 6 -2 10 -4 10 -3 0
-8 -4 -11 -10z"/>
<path d="M3928 1903 c6 -2 18 -2 25 0 6 3 1 5 -13 5 -14 0 -19 -2 -12 -5z"/>
<path d="M2975 1710 c-3 -5 1 -10 9 -10 9 0 16 5 16 10 0 6 -4 10 -9 10 -6 0
-13 -4 -16 -10z"/>
<path d="M2061 1443 c-1 -6 -4 -20 -7 -30 -5 -17 -5 -17 6 0 6 10 9 23 6 30
-3 9 -5 9 -5 0z"/>
<path d="M2970 1306 c0 -24 -28 -56 -49 -56 -7 0 -9 -4 -6 -10 11 -18 31 -11
43 15 7 14 20 25 31 25 32 0 51 11 51 30 0 14 -8 18 -35 18 -30 0 -35 -3 -35
-22z"/>
<path d="M4058 1484 c-72 -48 -73 -50 -58 -74 7 -12 15 -9 47 18 21 18 55 42
75 55 38 22 44 40 17 44 -8 1 -44 -18 -81 -43z"/>
<path d="M3856 947 c3 -10 9 -15 12 -12 3 3 0 11 -7 18 -10 9 -11 8 -5 -6z"/>
<path d="M4266 698 c3 -4 0 -8 -7 -8 -6 0 -9 -8 -6 -19 3 -11 -2 -29 -10 -41
-30 -43 9 -68 46 -29 17 19 34 98 21 100 -33 5 -48 4 -44 -3z"/>
<path d="M4750 266 c0 -9 5 -16 10 -16 6 0 10 4 10 9 0 6 -4 13 -10 16 -5 3
-10 -1 -10 -9z"/>
<path d="M4570 200 c0 -5 5 -10 10 -10 6 0 10 5 10 10 0 6 -4 10 -10 10 -5 0
-10 -4 -10 -10z"/>
<path d="M4305 184 c9 -9 19 -13 23 -10 3 4 0 11 -8 16 -24 15 -33 11 -15 -6z"/>
<path d="M4378 183 c7 -3 16 -2 19 1 4 3 -2 6 -13 5 -11 0 -14 -3 -6 -6z"/>
<path d="M4121 124 c0 -11 3 -14 6 -6 3 7 2 16 -1 19 -3 4 -6 -2 -5 -13z"/>
<path d="M4998 5408 c6 -6 8 -17 5 -24 -8 -21 5 -17 16 5 9 15 7 20 -11 24
-15 4 -18 3 -10 -5z"/>
<path d="M6355 5350 c3 -5 8 -10 11 -10 2 0 4 5 4 10 0 6 -5 10 -11 10 -5 0
-7 -4 -4 -10z"/>
<path d="M6391 5304 c0 -11 3 -14 6 -6 3 7 2 16 -1 19 -3 4 -6 -2 -5 -13z"/>
<path d="M6161 5294 c0 -11 3 -14 6 -6 3 7 2 16 -1 19 -3 4 -6 -2 -5 -13z"/>
<path d="M6248 5303 c7 -3 16 -2 19 1 4 3 -2 6 -13 5 -11 0 -14 -3 -6 -6z"/>
<path d="M6196 5285 c-3 -8 -1 -15 4 -15 6 0 10 7 10 15 0 8 -2 15 -4 15 -2 0
-6 -7 -10 -15z"/>
<path d="M6350 5290 c0 -5 5 -10 10 -10 6 0 10 5 10 10 0 6 -4 10 -10 10 -5 0
-10 -4 -10 -10z"/>
<path d="M6260 5264 c0 -8 5 -12 10 -9 6 4 8 11 5 16 -9 14 -15 11 -15 -7z"/>
<path d="M1250 5230 c13 -9 13 -11 0 -20 -13 -9 -13 -10 0 -10 9 -1 5 -6 -10
-14 -14 -8 -28 -12 -32 -9 -5 2 -20 -5 -35 -17 -18 -14 -35 -19 -50 -15 -41
10 -73 -5 -80 -37 -6 -29 -7 -30 -52 -22 -56 9 -86 7 -158 -11 -18 -4 -33 -11
-33 -16 0 -5 -9 -9 -19 -9 -11 0 -23 -4 -26 -10 -3 -5 -16 -10 -28 -10 -12 0
-28 -9 -35 -20 -7 -11 -23 -20 -37 -20 -17 0 -29 -8 -37 -25 -12 -28 -28 -33
-28 -10 0 21 -68 20 -91 -1 -10 -9 -33 -17 -52 -19 -40 -4 -77 -21 -77 -35 0
-6 -7 -10 -15 -10 -8 0 -15 5 -15 11 0 23 -86 -15 -93 -42 -3 -10 -21 -26 -41
-36 -20 -9 -36 -20 -36 -24 0 -4 -16 -6 -35 -4 -27 2 -36 -1 -40 -16 -4 -11
-10 -17 -15 -14 -5 3 -25 -4 -44 -16 l-36 -21 0 -114 c0 -63 3 -114 8 -114 4
0 30 8 59 19 28 10 63 17 78 16 14 -2 28 2 31 8 2 7 20 12 40 11 24 -1 41 4
54 18 19 20 58 18 45 -2 -9 -15 2 -12 20 6 14 15 18 14 43 -2 15 -10 32 -17
37 -16 6 1 18 -11 28 -27 9 -16 28 -31 44 -34 16 -4 51 -28 80 -54 95 -89 125
-113 139 -113 7 0 21 -11 30 -25 9 -13 24 -27 35 -30 10 -4 20 -16 20 -28 1
-19 2 -19 6 -4 4 17 7 16 18 -7 8 -15 11 -34 8 -43 -5 -12 -2 -15 10 -10 13 5
14 2 5 -26 -13 -39 -23 -51 -15 -18 4 18 3 21 -5 13 -9 -9 -9 -21 0 -49 10
-34 10 -36 -3 -19 -18 23 -20 4 -4 -26 11 -21 12 -21 24 3 10 17 10 28 3 37
-8 9 -7 11 4 7 25 -10 162 329 301 745 47 140 96 280 109 310 26 59 26 80 0
80 -15 0 -15 -2 -2 -10z m-703 -276 c-3 -3 -12 -4 -19 -1 -8 3 -5 6 6 6 11 1
17 -2 13 -5z m-37 -34 c0 -5 -4 -10 -10 -10 -5 0 -10 5 -10 10 0 6 5 10 10 10
6 0 10 -4 10 -10z"/>
<path d="M4585 5169 c100 -106 98 -105 120 -53 14 34 14 38 -2 50 -10 7 -34
16 -53 20 -19 4 -57 18 -85 32 l-50 24 70 -73z"/>
<path d="M728 5043 c7 -3 16 -2 19 1 4 3 -2 6 -13 5 -11 0 -14 -3 -6 -6z"/>
<path d="M5156 4945 c4 -8 8 -15 10 -15 2 0 4 7 4 15 0 8 -4 15 -10 15 -5 0
-7 -7 -4 -15z"/>
<path d="M1443 4893 c-3 -10 -8 -22 -11 -27 -3 -5 0 -6 5 -3 11 7 25 47 17 47
-3 0 -7 -8 -11 -17z"/>
<path d="M6360 4765 c0 -8 9 -15 20 -15 24 0 27 15 4 24 -22 9 -24 8 -24 -9z"/>
<path d="M6195 4751 c-6 -11 9 -23 19 -14 9 9 7 23 -3 23 -6 0 -12 -4 -16 -9z"/>
<path d="M3290 4634 c0 -8 5 -12 10 -9 6 4 8 11 5 16 -9 14 -15 11 -15 -7z"/>
<path d="M4774 4606 c7 -36 14 -43 22 -22 4 11 0 24 -10 34 -16 16 -17 15 -12
-12z"/>
<path d="M3291 4574 c0 -11 3 -14 6 -6 3 7 2 16 -1 19 -3 4 -6 -2 -5 -13z"/>
<path d="M4574 4551 c13 -5 16 -10 8 -15 -14 -9 2 -41 36 -69 12 -10 22 -25
22 -32 0 -8 9 -13 20 -12 27 2 25 19 -5 45 -14 12 -25 31 -25 43 0 11 -4 18
-9 15 -5 -3 -11 3 -14 14 -3 13 -13 20 -29 19 -21 0 -21 -1 -4 -8z"/>
<path d="M4807 4546 c-4 -10 -7 -25 -6 -34 0 -14 2 -13 9 3 7 15 9 10 10 -25
1 -41 2 -43 11 -19 7 19 6 36 -4 60 -11 28 -14 30 -20 15z"/>
<path d="M3291 4524 c0 -11 3 -14 6 -6 3 7 2 16 -1 19 -3 4 -6 -2 -5 -13z"/>
<path d="M5350 4440 c0 -6 7 -10 15 -10 8 0 15 2 15 4 0 2 -7 6 -15 10 -8 3
-15 1 -15 -4z"/>
<path d="M4530 4430 c0 -5 -7 -10 -15 -10 -8 0 -15 -4 -15 -9 0 -5 10 -7 22
-3 14 3 19 2 14 -6 -5 -8 0 -12 13 -12 24 0 26 8 7 33 -15 19 -26 22 -26 7z"/>
<path d="M4812 4357 c2 -15 7 -28 13 -28 16 -1 16 16 0 36 -15 19 -15 19 -13
-8z"/>
<path d="M167 4345 c-4 -8 -27 -17 -59 -21 -38 -5 -60 -15 -80 -35 l-28 -27 0
-321 c0 -279 2 -321 15 -321 8 0 15 -9 15 -20 0 -22 -15 -27 -23 -7 -3 6 -6
-9 -6 -35 -1 -53 14 -102 29 -93 5 3 10 0 10 -8 0 -9 14 -17 35 -21 24 -5 33
-11 28 -21 -6 -17 -49 -20 -58 -5 -3 6 -15 10 -25 10 -17 0 -19 -8 -19 -65 l1
-65 26 7 c15 4 44 7 66 6 29 -1 36 1 27 10 -15 15 -14 44 2 50 10 4 10 6 0 6
-24 2 -13 21 12 21 19 0 26 -7 31 -27 11 -55 13 -56 30 -43 8 7 13 19 10 27
-3 7 1 13 9 13 8 0 16 6 16 13 1 6 4 -1 8 -17 4 -18 15 -32 30 -37 21 -8 23
-7 17 15 -5 19 -1 25 16 29 12 4 28 1 35 -5 9 -7 13 -7 13 1 0 6 7 11 15 11 8
0 14 -3 14 -7 -3 -20 2 -26 11 -13 8 13 10 12 10 -2 0 -10 -4 -18 -9 -18 -5 0
-11 -7 -14 -14 -17 -45 58 40 113 128 19 31 84 129 120 181 62 91 127 227 101
211 -6 -4 -11 -2 -11 4 0 6 11 16 25 22 14 6 24 16 22 21 -2 6 7 21 20 35 28
30 31 54 6 45 -15 -6 -16 -5 -3 9 8 9 17 14 19 12 2 -2 10 5 18 16 11 15 11
23 2 38 -11 18 -15 18 -47 5 -41 -17 -49 -12 -33 23 13 29 7 44 -17 44 -13 0
-11 4 6 16 21 15 25 15 41 0 10 -9 20 -16 23 -16 12 0 0 63 -13 71 -12 8 -12
10 1 18 8 6 11 13 7 18 -5 4 -12 1 -17 -7 -8 -13 -12 -12 -24 5 -9 11 -16 28
-16 38 0 21 -14 22 -35 1 -10 -10 -27 -15 -45 -12 -24 4 -27 2 -19 -9 17 -19
-4 -16 -27 5 -23 22 -82 52 -101 52 -7 0 -13 8 -14 18 0 10 -3 12 -6 5 -6 -17
-30 -16 -40 0 -10 18 -63 31 -63 17 0 -7 -5 -8 -12 -3 -14 9 -38 12 -113 16
-27 2 -55 6 -61 10 -7 4 -14 0 -17 -8z m569 -431 c-3 -9 -6 -23 -6 -32 -1 -14
-2 -14 -12 2 -8 15 -8 21 0 24 7 2 10 8 6 13 -3 5 0 9 6 9 7 0 9 -7 6 -16z
m-666 -324 c0 -5 -4 -10 -10 -10 -5 0 -10 5 -10 10 0 6 5 10 10 10 6 0 10 -4
10 -10z m30 0 c0 -5 -4 -10 -10 -10 -5 0 -10 5 -10 10 0 6 5 10 10 10 6 0 10
-4 10 -10z m113 -67 c-7 -2 -19 -2 -25 0 -7 3 -2 5 12 5 14 0 19 -2 13 -5z
m227 -37 c0 -11 -19 -15 -25 -6 -3 5 1 10 9 10 9 0 16 -2 16 -4z"/>
<path d="M2950 4229 c0 -5 5 -7 10 -4 6 3 10 8 10 11 0 2 -4 4 -10 4 -5 0 -10
-5 -10 -11z"/>
<path d="M2997 4220 c5 -19 23 -26 36 -14 11 11 -5 34 -23 34 -13 0 -17 -5
-13 -20z"/>
<path d="M2015 4174 c-16 -15 -24 -23 -16 -19 9 6 12 4 7 -3 -4 -7 -15 -12
-24 -12 -14 0 -15 -2 -2 -9 8 -6 17 -8 21 -5 4 2 12 -8 17 -23 6 -16 11 -22
11 -15 1 7 14 12 31 12 26 0 30 4 30 28 -1 75 -24 89 -75 46z m65 -19 c0 -8
-4 -15 -10 -15 -5 0 -10 7 -10 15 0 8 5 15 10 15 6 0 10 -7 10 -15z"/>
<path d="M5382 4160 c0 -14 2 -19 5 -12 2 6 2 18 0 25 -3 6 -5 1 -5 -13z"/>
<path d="M5487 4113 c-6 -10 33 -113 43 -113 4 0 5 11 2 25 -2 14 -8 25 -13
25 -17 0 -9 29 9 33 9 2 7 3 -6 2 -18 -2 -21 2 -17 16 6 18 -9 27 -18 12z"/>
<path d="M5580 4010 c-13 -8 -12 -10 3 -10 9 0 17 5 17 10 0 12 -1 12 -20 0z"/>
<path d="M6354 3920 c-5 -25 -10 -29 -28 -24 -14 3 -28 -1 -35 -10 -14 -17
-51 -22 -51 -7 0 5 -25 11 -55 13 -44 2 -54 0 -52 -12 2 -13 -19 -15 -132 -16
-79 -1 -136 -5 -140 -11 -5 -9 -56 -11 -56 -3 0 1 -19 3 -42 5 -30 2 -43 -1
-47 -12 -5 -13 -8 -13 -21 0 -8 8 -30 15 -49 15 -19 0 -39 3 -45 7 -6 3 -11 3
-11 0 0 -17 72 -159 107 -211 21 -33 59 -93 83 -134 24 -41 50 -83 58 -92 7
-9 21 -30 30 -46 9 -16 40 -63 67 -104 l50 -75 70 3 c39 2 132 3 208 4 128 0
137 1 137 19 0 11 -6 22 -12 24 -10 4 -10 6 0 6 26 2 10 21 -18 21 -16 0 -30
5 -30 10 0 6 12 9 28 8 l27 -3 3 304 c2 229 -1 306 -10 312 -9 6 -9 11 1 23
12 14 10 16 -8 16 -16 0 -23 -8 -27 -30z m-177 -646 c-3 -3 -12 -4 -19 -1 -8
3 -5 6 6 6 11 1 17 -2 13 -5z"/>
<path d="M230 3268 c-79 -13 -98 -15 -165 -16 -52 -2 -61 -5 -62 -21 -2 -22
-5 -21 171 -51 76 -13 123 -17 130 -11 7 6 22 28 34 49 l22 40 -31 11 c-18 6
-35 10 -38 10 -3 -1 -31 -6 -61 -11z"/>
<path d="M6020 2825 c0 -8 -6 -15 -14 -15 -22 0 -28 -31 -9 -46 26 -20 32 -17
31 14 -1 15 2 35 6 45 5 10 4 17 -3 17 -6 0 -11 -7 -11 -15z"/>
<path d="M480 2759 c0 -5 5 -7 10 -4 6 3 10 8 10 11 0 2 -4 4 -10 4 -5 0 -10
-5 -10 -11z"/>
<path d="M6050 2760 c0 -5 5 -10 10 -10 6 0 10 5 10 10 0 6 -4 10 -10 10 -5 0
-10 -4 -10 -10z"/>
<path d="M27 2668 c-27 -43 -37 -111 -17 -123 7 -4 7 -12 0 -25 -16 -29 -13
-60 5 -54 8 4 12 10 9 15 -3 5 0 9 6 9 6 0 10 6 8 13 -4 17 35 147 44 147 15
0 8 48 -8 54 -9 3 -17 6 -18 6 -1 0 -14 -19 -29 -42z"/>
<path d="M225 2319 c-4 -6 -5 -12 -2 -15 2 -3 7 2 10 11 7 17 1 20 -8 4z"/>
<path d="M200 2218 c0 -15 5 -30 10 -33 13 -8 13 25 0 45 -8 12 -10 9 -10 -12z"/>
<path d="M176 2121 c-4 -7 -5 -15 -2 -18 9 -9 19 4 14 18 -4 11 -6 11 -12 0z"/>
<path d="M1065 360 c-3 -5 -1 -10 4 -10 6 0 11 5 11 10 0 6 -2 10 -4 10 -3 0
-8 -4 -11 -10z"/>
<path d="M1490 312 c-24 -21 -30 -31 -21 -37 13 -7 61 37 61 57 0 12 -3 11
-40 -20z"/>
<path d="M1720 295 c0 -8 4 -15 10 -15 5 0 7 7 4 15 -4 8 -8 15 -10 15 -2 0
-4 -7 -4 -15z"/>
<path d="M1602 279 c-36 -7 -98 -59 -83 -69 6 -3 6 -11 1 -20 -13 -20 -13 -43
0 -35 6 4 10 -6 10 -24 0 -24 4 -30 23 -29 49 0 106 21 113 40 3 12 12 17 20
14 8 -3 13 -2 10 3 -3 4 4 24 14 44 33 62 29 68 -50 79 -14 2 -40 1 -58 -3z"/>
<path d="M2288 275 c-55 -15 -108 -52 -108 -75 0 -10 11 -26 25 -36 29 -22 32
-54 8 -95 -16 -27 -16 -29 2 -49 17 -19 28 -21 127 -18 59 1 108 6 108 10 0 5
-7 8 -15 8 -8 0 -15 4 -15 8 0 12 34 42 47 42 12 0 47 54 58 89 4 15 2 21 -9
21 -9 0 -35 10 -59 21 -57 28 -119 20 -176 -22 -41 -29 -41 -29 -41 -6 0 36
29 67 84 93 55 25 39 29 -36 9z"/>
<path d="M1 118 c-1 -19 5 -29 20 -33 16 -5 18 -10 8 -21 -9 -11 -8 -14 9 -14
11 0 32 -2 48 -5 16 -3 36 -1 44 5 13 9 13 11 0 20 -8 5 -25 10 -36 10 -13 0
-24 8 -27 20 -3 13 -14 20 -30 20 -14 0 -28 6 -30 13 -3 6 -6 0 -6 -15z"/>
<path d="M180 131 c0 -4 -12 -13 -26 -19 -25 -12 -24 -38 2 -28 8 3 24 1 36
-3 22 -9 22 -9 -7 -20 -102 -39 -107 -45 -40 -55 53 -8 65 -3 58 25 -5 17 -2
19 23 15 16 -2 35 -5 42 -5 7 -1 11 -5 7 -11 -3 -5 -12 -7 -20 -3 -8 3 -15 0
-15 -7 0 -6 -4 -8 -10 -5 -5 3 -10 2 -10 -3 0 -5 36 -9 80 -10 66 -1 78 1 74
13 -4 8 -10 15 -16 15 -5 0 -24 11 -41 24 -18 13 -42 27 -54 31 -13 3 -23 10
-23 15 0 5 -13 15 -30 24 -16 8 -30 11 -30 7z"/>
<path d="M0 21 c0 -14 5 -18 20 -14 24 6 26 19 4 27 -23 9 -24 8 -24 -13z"/>
<path d="M570 15 c-10 -12 -10 -15 4 -15 9 0 16 7 16 15 0 8 -2 15 -4 15 -2 0
-9 -7 -16 -15z"/>
<path d="M3903 20 c-13 -5 -23 -12 -23 -15 0 -3 48 -5 108 -4 103 1 105 2 67
14 -46 16 -120 18 -152 5z"/>
<path d="M920 10 c0 -5 5 -10 11 -10 5 0 7 5 4 10 -3 6 -8 10 -11 10 -2 0 -4
-4 -4 -10z"/>
<path d="M1160 10 c0 -5 5 -10 11 -10 5 0 7 5 4 10 -3 6 -8 10 -11 10 -2 0 -4
-4 -4 -10z"/>
</g>
</svg>
